<?xml version="1.0" encoding="UTF-8"?>
<svg xmlns="http://www.w3.org/2000/svg" viewBox="0 0 809.38 431.86">
    <defs>
        <style>.cls-1{fill:#afa62a;}.cls-1,.cls-2,.cls-3,.cls-4{fill-rule:evenodd;}.cls-2{fill:#cc324e;}.cls-3{fill:#a13b4f;}.cls-4{fill:#193e4a;stroke:#000;stroke-linecap:round;stroke-linejoin:round;stroke-width:2px;}</style>
    </defs>
    <g id="marker">
        <path class="cls-4" d="m407.28,27.85l-.13.02h-.07l-.05-.04-.03-.04v-.05l-.03-.1v-.05l-.04-.09v-.05h0s.2-.01.2-.01h.18s.02.03.02.03v.03l.02.04v.05l-.02.03-.03.05v.16l-.02.02h-.01.01Z"/>
        <path class="cls-4" d="m310.54,21.85h0l-.07-.05-.12-.09h-.02l.07-.02h.03l.1-.02v.07l.02.1h-.01Z"/>
        <path class="cls-4" d="m310.54,21.85h.18l2.59-.03,7.21-.07h.13l5.66-.09h.46l6.16-.07,2.13-.02h1.12l6.53-.16.25-.03h.25s.25.01.25.01h.6l4.12-.06h.38l2.03-.02.55-.02h.31l.37-.03h.51l3.22-.05h.4l.11-.02.65-.02.77-.03h.59l5.65-.07,1.63-.02,3.72-.02h.62l2.03-.03h1.08l7.43-.04h2.54l.09-.03h3.2l.64.02h1.02l7.4-.03h1.33l1.13-.03h2.03l2.94-.03h0l.04,3.32v.99l.03,1.39v.89h.34s2.95-.03,2.95-.03h7.46l3.67.03h.3l2.2.02h1.1l.63-.02h3.21l7.41-.3,5.56-.18,5.02-.19.62-.02h.32s.41-.03.41-.03l1.23-.05,1.47-.07h.3s1.51-.04,1.51-.04l1.94-.03h0l1.75-.09.98-.02,1.66-.04,4.72-.11h.49l.4.03.19-.08.21-.09.11-.06.13-.08.09-.06.11.11.12.1.04.02.04.03.08.03h.09s.18.01.18.01h1.56l.83-.02,2.06-.05h.86l1.46-.03h2.2s2.69-.03,2.69-.03h2.51l.44-.03h.02l.03-.03.03-.02h1.72s.04-.01.04-.01h.33l.82-.03h.87s2-.01,2-.01l1.55-.02,5.11.03h3.32l1.45-.03h1.34l1.15-.02h.34s.32-.01.32-.01h.04s.07-.01.07-.01l.86-.03,1.25-.05h.37s.06.04.06.04h.18l3.22-.12,2.8-.07h.41l.5-.02h.28l1.39-.07h.22l2.8-.08h.38l1.51-.06h.36l2.21-.08h.27l.63-.02h.08l3.91-.15h.31l3.21-.16h.06l.16-.02h.01l1.85-.11.27-.02,1.62-.09,2.06-.16,4.48-.35.88-.02h.09l.02,1.06v.83l.03,1.09h0l.07,4.46v.48l.03,1.44.02.93.02.97.02.58.08,3.08.04,1.79.02,1.27.07,4.38.02,1.34v1.05h.01v.21l.05,4.87v.29l.02.67v1l.07,4.32v1.1s.01.03.01.03l.03.03v1.34l-.02.84v1.05s.01,2.74.01,2.74v1.55h0s.31,0,.31,0l.3-.03.46-.02.94-.02h.42l.14-.02,1.18-.03.78-.03h2.5s.34,0,.34,0l.47-.02h.69l.62-.02,1.33-.02h.62l1.52-.03h.66s.43.01.43.01h.11l.69-.08h.1s.28-.05.28-.05h.05l.39.02h.25l2.21-.06h.12l1.94-.02h.01l2.85.07h.19l1.01-.02,2.86-.04,2.1-.04h.14l.14.06h.29s.03,0,.03,0l2.58-.05h.32l6.31-.11,2.15-.02,2.39-.06.53-.02h.76s.06.05.06.05l.18.06,3.86-.15.4-.02,1.68-.07h.3s.27,0,.27,0l4.02-.17h.89l1-.02h.21l1.4.04h.02l1.36.03h.33s.15,0,.15,0h1.06l1-.02h.11l1.87-.03,1.83-.03h.02l3.79-.06,1.87-.05h.09l1.67-.05h4.23l1.57.03h1.79l1.89-.04h.31l.81-.02h1.34l1.29-.02,1.89-.02h.3l1.09-.03,1.28-.02,1.46-.02h1.81s.93,0,.93,0l.87-.03h.11l.93-.02h.94s.41,0,.41,0h.53s.06,0,.06,0h.52s.06,0,.06,0h.03l.14-.08h.36l1.23.05.69-.09h.84s.49,0,.49,0h.93l.51.04h1.14v-.03l.3.03.24.02h.27l.13-.02h2.53s.62,0,.62,0h.18s.38-.01.38-.01h.21l.28.04.3.02.33-.04h.46l.58.02.34-.02h1.56l.92.06h.22l.09-.03.06-.02h.23s.66,0,.66,0h3.27s.2,0,.2,0l2.24-.02h2.02s.57,0,.57,0l.32-.03h.04l.19-.04h0l2.74-.07h.41l3.5-.09h.31l.35-.38h0l.02.02.07.07.1.08.1.07.1.05.13.06.1.03.12.03h.07s.08,0,.08,0l.15.02,1.92-.03h.13l1.8-.03,1.15-.02,1.23-.02h.58l1.95-.04h.48l1.68-.03,2.15-.03,1.45-.02,2.1-.03h.4s.19,0,.19,0l.1.03h.5l.89-.04h.01l.18-.13,2.44.1h1.29s.77,0,.77,0l1.1-.03h3.86s2.38,0,2.38,0l6.21.03h4.47l1.72.02h0v.02l-.08,2.64-.06,1.97-.12,4.58v.86l-.13,4.19-.05,1.43v.17l-.02.07v2.52s-.04,4.68-.04,4.68v1.92s-.01.4-.01.4v2.4l.03.15v.05l-.04.06v.03l-.02.05v.18s.01.73.01.73v.97s-.01.07-.01.07v.43l-.02,1.23v2.45l-.02.02v.03l-.05.08v.1s-.01.35-.01.35l.02.27v.55l.02.53v1.74s.01.14.01.14v7.43h0v2.65l-.02.05v3.66l.03,1.13h0v.64l.04,3.48v.08l.04,2.23h0v.13s-.01.07-.01.07v.94l.02,1.15v2.65s.01.17.01.17v1.21l.02,1.95v.12s-.01.03-.01.03v.83s.01.05.01.05l.04,7.25h0v.02l-.07,1.72v.21l-.02.15v.3l.07,3.52v2.79s-.03,3.53-.03,3.53v.3l.02.04-.03.08v1.87l-.02.33v.11l-.02.16v2.85l.02.16v1.06s-.03.32-.03.32h0l-.02,1.6v.18l.02.12.06.36.1,1.18v.15l.02.04v.47l.03,5.01v.03h0s.04,1.98.04,1.98l.06,2.72.03,1.14.03,3.37.07,3.58v3.98s-.01.28-.01.28l.03,1.73.03,2.09v1.66l.04,2.44.03,1.86v.98s.01.61.01.61v.26s.01.09.01.09v.36l.05,2.57v2.02l.04,2.4.04,2.45v.5l.02,1.15v.06l.03,1.42v.85l.02.29.02.95h0v1.36l.02,1.74v.84l.02.24.03,1.22.04,2.04v.75h0v.28s.03.12.03.12l.02.6-.07.35-.04.23-.14.72.21.26.08.1.02.93v.13h-.01v.28s-.01.46-.01.46l.02.49v.24l.02.09v.28s-.01.1-.01.1l.02.07v.61s-.01.08-.01.08l.1,3.1.07,2.42v1.12l.05,1.32.1,2.83v.12s-.01.03-.01.03v.07l.1,2.76.03,1.09v.29l.08,2.33.02.49v.58h3.98l5.71-.05,4.51-.04h1.2l.97-.02h.2l5.56-.11,3.65-.09,1.76-.03,1.99-.03,5.35-.12h.03l1.47-.02h1.52l1.65-.04,4.06-.1h.85s1.41-.04,1.41-.04l1.09-.02h1.72s.27-.01.27-.01h.01l.09.06h.42l.2-.04h.15v-.02s.01-.03.01-.03l.8-.02h.65l.84-.03,3.05-.07,3.9-.08,1.27-.04,2.46-.05,3.76-.08h.26l2.87-.07,2.6-.08h.27l.38-.02.65-.02.17-.03h.16l.13-.02h.04l.03-.04v.09h4.55s.05.01.05.01l.75.07,1.7-.05h3.79l.06-.02h.14l.05-.02h.06s.19-.01.19-.01h1.99l1.4.02h.08v.63s.01.15.01.15v1.66s-.01,3.73-.01,3.73v1.03s.03,3.8.03,3.8l.04,3.88v.82l.04,3.05.04,3.88v1.47s.03.04.03.04h-.02l.05,4.11v1.45l.03,2.94v.18s-.01.12-.01.12l.04.17.02.11v.04l-.03.05v2.04l.05,3.82v.58l.02,1.17v.51s-.01.06-.01.06v1s.01,1.43.01,1.43v.62h0s.04.57.04.57l.15,2.22.11.88.15,4.42.14,4.38.04,2.28.02,1.23-.09.03.02.07.03.16.02.17.02.25.02.42.05,1.47v.33h0v.46s.01.09.01.09v.15l.04.14.04.19v.08l.03.14.05.26h0v.08l.02.22v.57s.01.02.01.02v.14s.01.04.01.04v.18s-.03.5-.03.5v.23h0l.12,5.23.06,2.11.03,1.56v.56s.01.2.01.2v.3s.01.03.01.03v.38l.04.67v.21h.01v.12h0l.19,2.99v.41h.01l.02.05h0v.75l.02.19.1,2.43.05,1.38.03.86v.36l.03.1v.03l.03.03.05.05.09.07-.07.18-.02.05-.02.11-.02.15v.14l-.02.27v.11l-.02.16v.03l-.06.14v.03l-.08.15.12.17.04.08.02.09v.35s.01.4.01.4v.1s.01.25.01.25v.28s-.03.23-.03.23l-.05.41-.02,1.74v.48l.09,2.83.04,1.46.09,3.01.02.54v.24l.04,1.17.04,1.19v.15l.04,2.13.05.78v.11l.02.22v.36l.02,3.43v.34h.03l.02.03v.08l.02,1.28.03,1.67.03.2.11,3.65.07,2.18.06,1.71.04,1.7.05,1.91v.18l.02.52v.3l.03.56v.34s.04,1.12.04,1.12v.36s.1,3.1.1,3.1h0l.03.96v.37l.16,5.74.04,1.37.07,2.32.07,2.31v.21l.08,2.67.03,1.03.02.65v.59l.13,4.02v.07l.07.4-.08-.04h0v.57h.03s.02.01.02.01v.02l.02.26v.02l.06,1.83.03,1.21v.37s.01.06.01.06v.23l.04.53.07,1.13v.09l-.02.03h0v1.65s.01.02.01.02v.33l.11,3.5h0l.1,3.72.05,1.91v.46l.08,2.41.02.81v.07l.02.67.02.47v.76h.01l-2.13.04h-.62l-1.58.03-1.51.03-.97.02h-.05l-.8.02-.95.02h-.46l-.84.03-1.48.03h-.13l-1.56.03h-.03l-6.05.12-3.41.09-3.46.09-.78.02-.83.03h-.43l-1.47.04-2.63.04h-.32l-3.67.05-2.91.03-2.21.04h-.46l-.34.02-.81.02h-.41l-.17.02-.65.02h-2.09l-2.18.02h-1.14s-.98.01-.98.01l-.86.02h-1.05s-1.79.03-1.79.03l-2.38.03-3.22.05h-.4l-2.96.16-2.06.04h-.03l-3.77.07-3.79.07h-.71s-.88-.05-.88-.05h-.7l-1.95.05h-.29l-3,.06h-3.79l-3.26.05-2.35.04-2.32.03-1.42.02-2.14.04h0l-2.83.05-1.24.02-1.19.02-1.97.03-1.48.02-1.76.03-2.1.03h-.28l-1.54.02h-.95l-1.24.03h-.07l-7.41.13-6.47.14-1.02.02-1.85.06-4.14.12-1.21.03h-.25l-.92.04-1.97.1-.4.02-.38.02h-.11l-.6.04-2.65.14-.52.03-.56.03-2.79.14h-.2l-.06.02h-.18l-1.84.1-1.72.08h-.13l-.99.06-1.5.08-1.12.05h0l-.5.02-.63.03-.77.03h-.16l-.51.02-2.36.15-.83.05-.5.03-1.11.06h-.26l-.36.02h0l-.25.02-1.27.08-1.85.12-.79.05-1.49.09-1.07.06h-.15l-.23.03-4.12.18-.52.02-2.33.1-1.19.05h-.16l-.23.04-.06-.02h-.65l-1.96.05h0l-3.56.05-3.44.02h-3.53l-1.4.04h-.95l-2.29-.04-1.36-.02h-.99l-.95-.02h-.21s-1.7-.05-1.7-.05l-1.01-.02h-.38l-3.71-.1-1.33-.02-1.31-.02h-1.19l-.51-.02-2.2-.04h-.39l-.23-.02h-1.09l-1.18-.03-4.16-.05-2.14-.06-.95-.02-.84-.02-1.94-.03-4.21-.08h-.21l-4.62-.07h-.06l-.97-.02h-1.18l-6.2-.08-.83-.02h-1.9l-6.59-.09-2.37-.03-1.91-.02-.76-.03h-.53s-2.4-.11-2.4-.11l-1.73-.07h-.17l-.65-.03h-.17l-1,.07-.81.05-.73.05h-.13s-.04.01-.04.01h-5.13s-.12-.01-.12-.01h-4.95l-.97.02h-.47l-2.22.03h-.17l-.45.03h-1.82l-.34.03h-.35l-.71.02h-4.65s-.37.01-.37.01h-1.49s-.96.01-.96.01h-.23s-.25.01-.25.01h-1.11s-.11.01-.11.01h-.11s-.04.01-.04.01h-5.58l-2.74-.04-2.29-.03h-4.3s-1.01-.01-1.01-.01h-1.56l-.06-.02h-.02l-.06-.02-.14-.02h-1.06s-.06-.01-.06-.01h-.41l-1.16-.05-.08.05-.06.03h0l-.31-.04h-.1s-1.36-.01-1.36-.01h0l-5.33.02h-3.94s-.67.01-.67.01h-.83l-2.48.03h-1.45l-1.44-.02-4.07-.05-5.75-.08h-4.38l-1.72-.02h-2.9l-1.73.07h-.69l-2.72-.02h-5.66s-.09.04-.09.04l-.16.05h-.52s-.02-.01-.02-.01l-3.96-.05-2.5-.06-2.89-.07-2.3-.06-3.2-.08h-2.22l-1-.04h-.28l-.66-.03h-1.86l-6.56-.1h-.19l-3.52-.06h-.22l-1.31-.03-.98-.02h-1.18l-.97-.02h-.48l-.29-.02h-.76l-.56-.02h-.68l-1.56-.02h-3.24s-.32-.01-.32-.01h-.31l-1.51-.03-4.17-.03h-.45l-.59-.02-1.74-.02h-.57l-.86-.02h-.25l-.31-.02h-1.48s-.43-.01-.43-.01h-1.55s-.88-.01-.88-.01h-.57s-2.39-.04-2.39-.04l-1.96-.02h-.58l-.4.07h-.06l-.07-.02h-.08s-.55-.03-.55-.03h-.37l-3.27-.05h-.81l-1.26-.02h-.92l-.51-.02h-.47l-1.59-.03h-.65l-2.96-.02-2.29-.02-4.04-.04-1.57-.03-1.83-.03h-1.14l-1.85-.03h-.86s-.31.01-.31.01l-.72.02-.83.02h-1.61l-.9-.02-1.49-.04h-.29l-1.21-.02h-.94s-1.79-.03-1.79-.03h-.21l-.69-.02h-2.9l-1.35-.02-2.55-.04h-.77s-.96-.03-.96-.03h-.22l-4.12-.08-2.05-.04h-.48l-.67-.06h-.18l-.67-.03h0l-2.7-.08h-.21l-.77-.04h-.26s-.17.04-.17.04h-.12s-.03.01-.03.01h-.14s-.07,0-.07,0l-.28-.08-.52-.02h-.31l-.34-.03-1.23-.06-1.7-.06-1.72-.06-.66-.02-1.32-.03h-.6l-1.86-.06-1.03-.03-1.05-.03h-.4l-.27-.02-.97-.03-7.01-.15h-.47s-3.13-.06-3.13-.06l-1.35.04h-.56s-.55-.04-.55-.04h-.1l-.07-.02h-.17s-1.02-.03-1.02-.03h-.17l-.64-.04h-2.76l-1.21-.03h-1.1l-.15-.02h-.01l-6.03-.04h-8l-2.94-.05-1.87-.03h-8.76l-.64-.02h-.09l-2.2.03h-5.55s-.45.01-.45.01l-1.2.02h-2.34l-2.01-.03-3.57-.03h-2l-1.03.02h-2.07l-1.58-.02-1.21-.02h-5.07s-1.39-.01-1.39-.01h-3.83s-2.48.04-2.48.04l-1.27-.03h-7.48s-2.81.01-2.81.01h-6.58s-1.91-.01-1.91-.01h-4.43l-2.35.02h-5.84l-2.77.02h-.95l-1.53.02h-4.67s-.12-.01-.12-.01h-.05s-.23-.01-.23-.01l-.44-.03-.84-.02h-.5l-1.41-.09h-.26s-2.82-.12-2.82-.12l-1.93-.07-2.52-.1h-1.01l-3.51-.07-.87-.03h-.17l-3.16-.04h0l-3.34-.09h-.45l-3.06-.22-2.13-.09h-.24l-6.9-.13-5.94-.1h-.63l-.27-.02h-.62l-1.25-.04h-.09l-2.32.04-1.74.03h-.5l-2.93-.04h-.63l-1.14.04-1.19.04h-.08l-1.12.03h0l-3.96-.05-2.33-.03-1.63-.02h-3.4l-2.64-.06-.75-.02-5.15-.03h-1.67l-1.32.02-3.28.04h0l-3.38.02-2.15.03h-.34l-1.7.03h-.22l-3.33.03h-.03l-.1.02h-.02l-.03.04h-1.26v-.02h-3.17l-.33-.03h-.31s-.13-.01-.13-.01h-.34l-.07.02-.07.02h-10.11s-2.53.06-2.53.06h-.68s-4.79.03-4.79.03h0l-.57-.02h-1.07l-1.04-.04h-1.61s-.23-.01-.23-.01h-.91l-.04.02h-4.36s-.27-.01-.27-.01h-.17s-.12-.01-.12-.01h-.2l-.51-.03-.47-.03-.47-.03h-.36l-.14.03h-.03l-.05.02-.07.02h-.08s-.02.01-.02.01h-1.92s-1.77.03-1.77.03h0l-5.46.03h-2.45l-2.82.03h-.18l-6.2.03h0l-2.02-.02h-1.42l-.25-.02h-.17l-1.47-.03h-1.01l-1.2.02h-.66s-.06.01-.06.01l-4.97.03h-.85l-1.03-.05-.92-.04-.97-.02h-1.3l-1.04.02h-1.36l-4.04-.05h-.26s-.92-.01-.92-.01h0l-1.77-.02.05-4.66v-.81l.05-3.87h0v-.65l.03-1.69v-1.2s.01-.63.01-.63l.04-3.21v-.15h0l.02-2v-1.15l.02-.68.02-1.75.02-1.81v-.91l.02-1.04.07-3.58.03-1.56.02-2.31v-2.78l-.03-2.76v-.66h0v-1.39l.02-1.51.02-2.32v-2.62l-.02-.33v-.19l.04-.52v-.09h0v-.08h0l.02-1.11v-1.79s.01-.75.01-.75v-.47h.06l-.06-.21v-2.33l-.03-4.46.02-.6.06-6.81h0v-1.82h0l.12-4.98-.09-.81h0v-1.39l.02-4.51v-1.47l.02-3.73.02-3.03h0v-.71l.02-5.57-.02-.02h0v-.25h0v-.07h0v-4.64h0v-3.8l-.04-.6.04-.76v-4.73s.01-.1.01-.1h0v-.28h0v-8.03h0v-.53h0v-6.99h-.01v-1.17h0s.02-2,.02-2v-1.65s.01-.02.01-.02v-3.72h0v-7.55l-.05-4.74-.04-2.68-.02-1.42-.12-.45.13-.15h0v-1.77s-.01-.59-.01-.59v-3.08s-.01-.12-.01-.12v-2.14l-.05-1.99v-8.41l-.02-1.12v-3.45l-.06-1.62-.06-.33v-.21l.08-.25.03-.12.04-2.1v-10.06s.03-2.64.03-2.64l.02-2.76v-1.29l-.06-.09h0v-.02l.03-2.37h0v-.06l.02-1.37-.03-.87v-1.99l-.02-.52v-1.98s-.01-.69-.01-.69h0l-.02-3.49v-.28l-.05-6.12v-1.42l-.06-3.79v-3.86h0v-9.36h-.01l.07-1.09v-4.77l-.05-1.7h0v-2.73s.05-.92.05-.92l-.02-1.48.08-2.88v-.07l.03-1.24v-2.44l.03-.5v-.5h-.01l.05-.28h-.05v-7.38l.02-3.88v-.05h0v-1.08l-.03-2.01v-.57h0v-4.06l-.02-1.83-.02-5.52v-5.53l-.02-1.41-.02-.05v-1.65l-.03-6.37v-1.02l-.02-4.08-.06-3.66-.02-3.79h0v-5.49s-.01-.08-.01-.08h0l-.03-3.48.04-3.33v-1.2s.04-2.52.04-2.52l.05-4.29v-.43l.07-5.37.02-1.96.04-3.41h0l.06-1.21v-.6l.03-1.95v-.88l-.02-.92v-1.22h0v-.39h0v-.15h0v-.59h0v-1.43s-.01-.27-.01-.27v-2.41h0v-2.16h0l-.02-.44v-1.93h.06l.59-.03.38.02.49-.09.7-.15.85-.14h.46l.8.05.76.1.62.18.94.26.46.12.42.13.42-.02.62-.22.7-.19.71-.08.9-.17.58-.15.59-.16.56-.23.5-.17.29-.08.32-.04h0l.48.02h0l.55.03.66-.02.67-.1.72-.14.54-.1.62-.13.7-.23.87-.29.26-.08.79-.13.74-.24.85-.26.83-.18.6-.09.68-.12.41-.05.45-.04.4-.1.62-.16.77-.13.38-.05.46-.04.51-.23.48-.27.28-.11.81-.1,1.82.15h.33l.41-.09.34-.02.45.04.46.03.28.04.53-.11h.62l.34.03.96.12.63.18.15.05.69.23,1.11.41.84.19.08.02.6.09.23.05h0l.96-.05h.26l.07-.02.75-.04h0l.81.1.59.09.57.22.23-.04.24-.04.36-.04.21-.03.41-.07h0l.43-.15h.1l.31-.05.59-.18.44-.07.22-.04.12-.04.11-.03.03-.02.13-.07h.25s.76.06.76.06l.51.16h.04l.49.16.94.38.49.39.54.56.52.61.25.46.21.32.45.65.26.92.12.28.12,1.28.17.31.23.18.52.24.55.25.4.11.46.02h.01l.57-.15.42-.16.28-.11.6-.22.58-.3.11-.05h0l.37-.17.2-.07.38-.13.51-.11h0l.15-.02.59-.09.3-.03.39-.04,1.02-.17.2-.04h0l.23.04.3.2.21.03.25.2.31.23.72.56.4.31.59.61.41.6.37.23.16.09.36.23.63.16.46.18.46.23.38.17.17.08.25.12.35.16.28.27.34.28.28.33.3.31.27.3.34.31.41.38.4.48.3.26.39.52.03.03.28.26.35.37h0l.29.27.3.31.28.33.02.02.19.24.32.29.3.28.28.32.4.34.29.23.46.33.44.34.39.31.55.3.37.22.52.17.33.14.45.11.37.07.42.17.34.27.34.31.45.36.59.31.33.18.5.2.5.17.42.14.43.14.09.04.19.09.48.21.57.19.51.27.52.34.42.36.4.25.08.04.03.02.44.21.43.18h0l.46.27.43.26.35.21.33.21.27.65.15.37.19.42.23.39.3.38.39.22.31.02.34-.07.62-.16.48-.18.55-.3.43-.33.44-.33.58-.42.08-.08.25-.25.86-.57.49-.31.3-.27.38-.27.03-.02h0l.48-.39.15-.11.13-.09.1-.07h.01l.18-.13.4-.21.14-.07.59-.24.5-.11.6-.06.56-.02h.56l.88.02.74.03.39.07h.07l.48.09.55.09h0l.31.02.48.03h.1l.16.03.5.07h.03l.44.03h.24s.2,0,.2,0h.64s.65.07.65.07l.73.08.37.11.42.18.6.27.74.23.15.05.37.12.46.2.63.32.89.58.82.23.8.1.62.05.57.14.35.1.18.09.05.02h.17s.26-.08.26-.08l.53-.07.69-.04.78-.02.46.04.52.1.75.09h.55l.67.06.47-.04.69-.23.7-.24.83-.26.35-.11.28-.05.24-.04.34-.1h.43l.65.08.73.24.71.31.8.72h0l.33.43.25.32.21.29,1.03,1.47.42.43.89.64.87.47,1.07,1.01.89,1.1h0l.15.18.7.75.54.28.48.03.3.04.27-.12.65-.13.7-.27.35-.2h0l.06-.1.08-.15.06-.09.05-.08.06-.25v-.13l.02-.08.08-.24.05-.04.08-.07.02-.02.05-.07v-.17s-.03-.13-.03-.13v-.09l-.05-.09-.08-.19-.19-.79v-.68l.03-.18.05-.31.3-.63.31-.48.1-.15.29-.55.22-.49.15-.39-.03-.69v-.45l-.16-.62h0l-.06-.44-.06-.39-.03-.17h0l.07-.48.13-.21.05-.05.23-.22.04-.03.21-.13.27-.09.13-.11.04-.03.03-.03.15-.13.15-.08.23-.13.34-.18.3-.15h0l.37-.28.06-.04.66-.4.12-.07,1.8-1.04.2-.18.65-.59.03-.03.82-.87h0l.66-.9.27-.69.2-.51.28-.71h0l.3-.51.27-.26.31-.29.19-.18.75-.48,1.28-.64.04-.02.43-.3,1.67-1.15.32-.23h0l.31-.22,1.53-1.04,1.02-.64,1.3-.65.48-.25.09.03.43-.1.6-.14.77-.15.12-.02h.09s.39-.06.39-.06l.72-.05.59-.05h.13l.7-.02h1.44l.48.05.79.32.57.28.45.14h.05l.38.09.42.04.27.07,1.95.52.32.04,1.07.13h.08l.67.09h.05l1.05.06.34-.02.43-.03.7-.05.44-.08.81-.27.52-.12.65-.07h.35s.06,0,.06,0l.08.03.83.22.86.27,1.02.25h0l.17.04.1.02.44.1h.02l.35.05.67.09.82.02.49.03.31.02.7.02.21.02.21.02h.06l.1.04.34.09.07.02,1.02.37.96.33.39.07.28.05.95.1h.08l.86.02h.3l.69.14.74.15,1.44.14,1.17.03.24-.03.23-.02h0l.19-.06.33-.09.81-.27.69-.23,1.52-.49.22-.09.04-.02h.03l1.29-.58.09-.04,1.1-.64.16-.09.5-.34.55-.37h0l.68-.38.85-.31,1.37-.3h0l.38-.04h.05l.09.03.24.08.58.11.56.04.19-.03h.11s.08,0,.08,0l.03-.02h.03l.27-.04h.34s.7.11.7.11l.38.03.51.04.76.1h.77s.58-.15.58-.15l.3-.07.3-.13.34-.19.03-.02.26-.19.04-.03.09-.08.19-.16.11-.07.13-.08.14-.05.14-.05.38-.08.29-.06,1.3-.77,2.03-1.21.15-.09h.02s.21-.23.21-.23l.16-.21.15-.31h0l.2-.31.34-.35.18-.21.2-.24h0l.21-.24.69-.82,1.09-1.83.04-.04-.1.77.94-1.72.13-.37.38-.24.48-.57.59-.62.11-.07.17-.18.14-.18.27-.41.27-.52.95-1.28.72-.98,1.01-1.01.36-.32.15-.25.33-.73.27-.82.08-.28.2-.66.28-.96.05-.18.11-.21.15-.28.21-.32.22-.34.5-.52h.01l.21-.17.33-.24.33-.11h0l.52-.18,1.02-.18.74-.05h1.02l.36.02.91.02.34.06.65.15.21.05h.17l.19.03h.08l1.12.09h.81l.23-.06,1.12-.14.69-.09,1.09-.16,1.14-.16.22-.06.3-.21.25-.25.23-.29.02-.03h0l.09-.08.16-.12h.01l.07-.06.03-.02.13-.07.11-.05h.02l.03-.03.1-.07.07-.06.07-.07.06-.07.09-.06.12-.07.15-.08.17-.09h0l.12-.05.1-.05.05-.07.03-.08v-.09l.04-.11.1-.17.11-.16.08-.13.08-.12.05-.1.05-.13.04-.13.03-.09.02-.07.05-.14.07-.12.12-.13.07-.12.03-.12.03-.15.05-.1.1-.08.16-.08.16-.06.17-.06.13-.06.13-.09.09-.09.06-.04.09-.04.13-.03.1-.02h.08l.07.03.08.05.11.05.08.02.08.02h.02l.11.02.14.03.12.03.12.05.1.07.11.12h0l.11.17.09.12.13.11.12.07.1.03h.11l.1.02h.51l.11-.02h.25l.4-.13.17-.08.19-.15.11-.07.12-.14.18-.25v-.02l.23-.31.15-.33.39-.72.32-.4.84-.82,1-.38,1.27-.45,1.07-.62.58-.47.02-.02.33-.27v-.02h.02l.24-.27.5-.57.49-.78.57-1.14.14-.41.19-.32.02-.03.07-.08.43-.28.58-.3.31-.18.13-.13.07-.07.46-.75.03-.05.48-.79h0l.19-.31.03-.05.34-.54.39-.53.04-.06.39-.78.31-.8.26-.69.26-.76.1-.83.06-.79v-.06h0l-.03-.15-.08-.42-.06-.34-.15-.4-.28-.72-.25-.6-.2-.47-.58-1.15-.18-.36h0l-.8-1.01h1.1s.38-.01.38-.01l.17-.02h2.38l2.99-.03,2.76-.03,6.68-.07,3.48.06h.87l1.47.04.58-.03.08-.05.14-.02h1.09s.96-.01.96-.01h4.37s.35-.01.35-.01h.09l.03.04.02.03v-.08h.14l.09-.02h9.1l.4-.02h.04l.04-.03h.13v.02h0s.58.01.58.01h1.5s.09-.01.09-.01l.18-.12Zm96.54,6.01h.21l.02-.03v-.16l.03-.05v-.03l.02-.05v-.04l-.02-.03-.02-.02h-.18s-.2-.01-.2-.01h0v.06l.03.09v.05l.03.1v.05l.05.04.05.03h-.02Z"/>
    </g>
    <g id="Layer_1">
        <path id="southern_1" class="cls-1" d="m137.93,143.5c0,12.97-16.88,28.82-23.5,50.5-6.52-21.78-23.5-37.53-23.5-50.5s10.54-23.5,23.5-23.5,23.5,10.54,23.5,23.5h0Z"/>
        <path id="southern_2" class="cls-1" d="m474.79,28.76c0,12.97-16.88,28.82-23.5,50.5-6.52-21.78-23.5-37.53-23.5-50.5s10.54-23.5,23.5-23.5,23.5,10.54,23.5,23.5Z"/>
        <path id="southern_3" class="cls-1" d="m414.02,93.15c0,12.97-16.88,28.82-23.5,50.5-6.52-21.78-23.5-37.53-23.5-50.5s10.54-23.5,23.5-23.5,23.5,10.54,23.5,23.5Z"/>
        <path id="southern_4" class="cls-1" d="m468.38,78.6c0,12.97-16.88,28.82-23.5,50.5-6.52-21.78-23.5-37.53-23.5-50.5s10.54-23.5,23.5-23.5,23.5,10.54,23.5,23.5Z"/>
        <path id="southern_5" class="cls-1" d="m468.38,106.94c0,12.97-16.88,28.82-23.5,50.5-6.52-21.78-23.5-37.53-23.5-50.5s10.54-23.5,23.5-23.5,23.5,10.54,23.5,23.5Z"/>
        <path id="southern_9" class="cls-2" d="m555.11,367.46c0,12.97-16.88,28.82-23.5,50.5-6.52-21.78-23.5-37.53-23.5-50.5s10.54-23.5,23.5-23.5,23.5,10.54,23.5,23.5Z"/>
        <path id="southern_79" class="cls-3" d="m678.42,23.5c0,12.97-16.88,28.82-23.5,50.5-6.52-21.78-23.5-37.53-23.5-50.5s10.54-23.5,23.5-23.5,23.5,10.54,23.5,23.5Z"/>
        <path id="southern_80" class="cls-3" d="m654.91,203.43c0,12.97-16.88,28.82-23.5,50.5-6.52-21.78-23.5-37.53-23.5-50.5s10.54-23.5,23.5-23.5,23.5,10.54,23.5,23.5Z"/>
        <path id="southern_81" class="cls-3" d="m629.29,152.6c0,12.97-16.88,28.82-23.5,50.5-6.52-21.78-23.5-37.53-23.5-50.5s10.54-23.5,23.5-23.5,23.5,10.54,23.5,23.5h0Z"/>
    </g>
</svg>