<?xml version="1.0" encoding="UTF-8"?>
<svg id="ikr_svg" xmlns="http://www.w3.org/2000/svg" viewBox="0 0 341.74 196.45">
    <defs>
        <style>.cls-1{fill:#cc334e;}.cls-1,.cls-2,.cls-3,.cls-4,.cls-5,.cls-6{fill-rule:evenodd;}.cls-2{fill:#1a3f4b;stroke-linecap:round;stroke-linejoin:round;stroke-width:2px;}.cls-2,.cls-3,.cls-6{stroke:#010101;}.cls-3,.cls-4{fill:#aea634;}.cls-3,.cls-6{stroke-miterlimit:10;stroke-width:.5px;}.cls-5,.cls-6{fill:#a23c50;}</style>
    </defs>
    <g id="Region_7">
        <path class="cls-2" d="m131.55,23.15h1.16s3.04-.04,3.04-.04h.05l2.38-.04h.2l2.59-.03h1.36l2.75-.07h.1l.02-.02h.43l1.73-.03h1.01s.23-.01.23-.01h.5s1.36-.03,1.36-.03h.49l.32-.02h.25l2.38-.03h.68l1.57-.02h1.12s.39-.01.39-.01h.07l3.13-.02h1.11s.05-.01.05-.01h1.99l3.12-.02h1.04s.19-.01.19-.01h1.9s.02,1.39.02,1.39v1.01s.01.15.01.15v.23h.15l1.24-.02h4.69s.13.01.13.01h3.01l3.12-.13,2.34-.08,2.11-.08h.39s.17-.01.17-.01l.52-.02.62-.03h.76l.82-.03h0l.74-.04h.41l.7-.02,1.99-.05h.38l.08-.02.09-.04.05-.03.06-.03.04-.03.05.05.05.04h.02l.02.02h.03l.04.02h1.09l.87-.03h.97s.06-.01.06-.01h2.03s.01-.01.01-.01h1.2s.01-.02.01-.02h.04s.07-.01.07-.01h1.14s.2-.01.2-.01h6.37s.49-.01.49-.01h.68l.53-.03h.17s.07.01.07.01l1.36-.05,1.18-.03h.5l.58-.03h.09l1.18-.03h.16l.64-.02h.15l.93-.03h.37s.03-.01.03-.01h0l1.65-.06h.13l1.35-.07h.09l.78-.05h.12l.68-.05.87-.07,1.89-.15h.4s0,.43,0,.43v.81h.01l.03,1.88v.81s.01.39.01.39l.02.41v.24l.04,1.3.02.75v.53l.04,1.84v.79s.01.22.01.22h0v.09l.02,2.05v.82l.03,1.82v.47h0v.03s.01.56.01.56v2.6h.25s.19-.01.19-.01l.39-.02h.74l.33-.03h2.76s.64-.01.64-.01h.17s.11-.01.11-.01h.18s.05.01.05.01l.29-.03h.04l.12-.02h.28l.93-.03h.87l1.2.03h.49l1.21-.02.88-.02h.06l.06.02h.12l1.09-.02h.13l2.66-.04h.91l1-.03h.36s.04-.01.04-.01h.14l.03.02.07.02,1.63-.06h.17l.71-.03h.24l1.69-.07h.88l.59.02h.57s.11.01.11.01h1.78l.77-.02h0l1.6-.03.79-.02h.04l.7-.02h2.43l.3.02h1.39s.34-.01.34-.01h1.11s.79-.01.79-.01h.12s.46-.01.46-.01l.54-.02h3.64l.06-.04h.15l.52.02.29-.04h.96l.21.02h2.5l.12.02h1.5l.39.03h.13s.02-.01.02-.01h0s.09-.01.09-.01h3.92s.08-.01.08-.01h0s1.15-.04,1.15-.04h.17l1.47-.04h.13l.15-.16h.01s.03.04.03.04l.04.03.04.03.04.02.06.02h.04l.05.03h.93s.06-.01.06-.01h1.24l.52-.02h.24l.82-.02h.91s.9-.01.9-.01l.61-.02h1s.05-.01.05-.01h.69s.07-.06.07-.06l1.03.04h1.32s.81-.01.81-.01h4.42s.06.01.06.01h2.57l-.03,1.12-.02.83-.05,1.93v.36l-.06,1.77-.02.6v3.21s-.01.73-.01.73v1.19l.02.06h0v.02l-.02.02h0v.04h0v.04h0v2.49h0v.03h0v.02h0l-.02.04v.77h.01v3.93h0v1.13h0v2.01h.01v.26l.02,1.47v.03l.02.94h0v2.15h0v1.35h0v.39l.02,3.05h0l-.03.72v.28l.03,1.48v2.72s-.01.03-.01.03v.06s.01.03.01.03l-.02.79v2.12h-.01v.8l.03.15.04.5v.06h0v2.32h.01s.02.84.02.84l.03,1.14v.48l.02,1.42.03,1.51v1.66h0v.86s.01.88.01.88l.02.7v1.03l.02.78v.98l.02,1.08v.85l.02,1.01.02,1.03v1.32s.01.36.01.36v.52h0v1.3s.01.35.01.35v.61l.03.86v.31h0v.04h0v.13l.02.25-.03.15-.02.1-.06.3.09.11.03.04v.45h0v.62s.01.04.01.04v.25h0v.23l.04,1.31.03,1.02v.47l.02.56.04,1.19v.05h0v.04l.04,1.16v.46l.02.12.03.98v.44h1.67l2.4-.02,1.9-.02h.99l2.34-.05,1.54-.04h.74l.84-.02,2.25-.05h1.26l.7-.02,1.71-.04h.94l.46-.02h.86l.04.02h.18l.08-.02h.06s.33-.03.33-.03h.63s1.28-.04,1.28-.04l1.64-.03h.53l1.04-.03,1.58-.03h.11l1.21-.03,1.09-.03h.55l.07-.02h.14v-.02s.01.04.01.04h1.95l.31.03.71-.02h3.23v4.6s.03,1.63.03,1.63v.35l.02,1.28.02,1.63v.64h0l.02,1.73v1.85s.01.02.01.02v.11l.02.07v2.56l.02.24v.63h0v1.37h0s.02.25.02.25l.06.94.04.37.06,1.86.06,1.85.02.96v.52h-.03v.04l.02.07v.07l.02.1v.18l.03.62v.13h0v.32l.02.06.02.08v.09s.03.11.03.11h0v.36h0v.46h0l.05,2.2.02.89v.66l.02.12v.32h0v.16l.02.28v.09h0v.05h0l.08,1.26v.15h0v.03h0v.02h0v.4l.04,1.02.02.58v.4s.01.1.01.1h0v.05h.02s.02.04.02.04l.04.03-.03.08v.02l-.02.05v.12s-.01.12-.01.12h0v.11h-.01l-.02.07h0l-.03.08.05.07.02.03v.11s.01.08.01.08v.53s-.03.17-.03.17v.94l.04,1.19.02.61.04,1.27v.32h.01v.5s.03.5.03.5v.06l.02.9.02.33v1.88h.01v1.29l.02.08.04,1.54.03.92.02.72.02.72.02.8v.67s.01.13.01.13h0v.48l.02.08v.07l.04,1.31h0v.45s.01.04.01.04v.07l.07,2.42.02.58.03.98.03.97v.09l.03,1.13v.43l.02.27v.25l.06,1.69v.03l.03.17-.04-.02h0v.24h0v.11h0l.02.77v.51l.02.14h0v.12h0l.02.23.03.48v.04h0v.7h0v.15l.05,1.47h0l.04,1.57.02.81v.2l.03,1.01v.65l.02.2v.32h0l-.9.02h-.91l-.63.03h-.77l-.4.02h-.54s-.62.01-.62.01h0s-.05.01-.05.01h-.66s-.01.01-.01.01h0l-2.55.05-1.44.04-1.46.04h-.33l-.35.02h-.18l-.62.02-1.11.02h-.13l-1.55.02h-1.23l-.93.03h-.67s-.17.01-.17.01h-4.58s-1,.01-1,.01l-1.36.03h-.17l-1.25.07-.87.02h-.01l-1.59.03-1.6.03h-.3l-.37-.03h-.29l-.82.02h-.12l-1.26.02h-1.58l-1.37.02-.99.02h-.97l-.6.02-.9.02h0l-1.19.02h-.52l-.5.02h-.83l-.62.02h-.74l-.88.02h-1.69s-.03.01-.03.01l-3.12.05-2.73.06h-.43l-.78.03-1.74.05h-.51l-.11.02h0l-.39.02-.83.04h-.17l-.16.02h-.05l-.25.02-1.12.06h-.22l-.23.02-1.17.06h-.19l-.78.04-.72.03h-.05l-.42.02-.63.03-.47.02h-.21l-.26.02h-.32l-.07.02h-.21l-.99.07-.35.02h-.21l-.47.03h-.37l-.53.04-.78.05-.33.02-.63.04-.45.03h-.17s-1.73.09-1.73.09h-.22l-.98.05-.5.02h-.07l-.09.02h-1.13s-1.5.03-1.5.03h-3.63s-.3.01-.3.01l-.96-.02h-1.48l-.72-.02h-.59s-1.56-.05-1.56-.05h-.56l-.55-.02h-.71l-.93-.02h-1.22s-1.75-.03-1.75-.03l-.9-.02h-.4l-.35-.02h-.82l-1.77-.05h-.09l-1.95-.03h-.93l-2.61-.04h-1.15s-2.77-.04-2.77-.04h-1l-.8-.02h-.36s-.05-.01-.05-.01h-.14l-1.01-.05-.73-.03h-.34s-.02-.01-.02-.01h-.06l-.42.03-.34.02-.31.02h-5.9s-.07.01-.07.01h-.19s-.04.01-.04.01h-.87s-.15.01-.15.01h-.3s-.12.01-.12.01h-6.17l-1.15-.02h-1s-.04-.01-.04-.01h-2.84s-.06-.01-.06-.01h-.61l-.49-.02-.03.02h-.02s-.13-.01-.13-.01h-4.27s-.23.01-.23.01h-2.01s-.12.01-.12.01h-.74l-1.71-.03-2.42-.03h-3.77l-.73.03h-3.83l-.07.03h-.23l-1.67-.02-1.05-.02-1.22-.03-.97-.02-1.35-.03h-.93l-.42-.02h-.4s-.2-.01-.2-.01h-.58l-2.76-.04h-.08l-1.48-.02h-.64s-.41-.01-.41-.01h-.29s-.21-.01-.21-.01h-4.49s-1.75-.01-1.75-.01h-.04s-.04-.01-.04-.01h-1.08s-.24-.01-.24-.01h-3.68l-.83-.02h-.25l-.17.03h-.48s-1.38-.01-1.38-.01l-.34-.02h-2.28s-1.25-.01-1.25-.01h-.96s-1.7-.03-1.7-.03h-.66l-.77-.02h-1.24s-.24-.01-.24-.01h-1.97s-.63-.03-.63-.03h-1.78s-.04-.01-.04-.01h-2.13l-1.08-.03h-.82l-1.74-.03-.86-.02h-.2l-.28-.02h-.36s-1.14-.04-1.14-.04h-.09l-.33-.02h-.18l-.03.02h-.12l-.12-.04h-.49s-.52-.03-.52-.03l-.72-.03-.72-.03h-.28l-.56-.02h-.24l-.78-.03h-.43l-.44-.02h-.69l-2.95-.08h-.2l-1.32-.02-.57.02h-.23l-.23-.02h-.65l-.27-.02h-4.73l-.62-.02h-.14s-.21.01-.21.01h-2.41l-1.24-.02h-.79s-2.37-.01-2.37-.01h-2.55s-.09.01-.09.01h-4.78s-1.5-.01-1.5-.01l-.67-.02h-2.15l-.51-.02h-24.01s-.05-.01-.05-.01h-.16l-.6-.04h-.11l-1.19-.04-.81-.03-1.06-.04h-.41l-1.48-.03h-.42s-.02-.01-.02-.01l-1.33-.02h0l-1.41-.04h-.19l-1.29-.09-.9-.04h-.1l-2.91-.06-2.5-.04h-.63l-.52-.02h-.04l-.98.02h-.78s0,.01,0,.01h-.15l-1.23-.02h-.26l-.48.02-.5.02h-.51s-1.67-.01-1.67-.01h-.98l-.69-.02h-1.43l-1.11-.03h-.32l-2.17-.02h-1.26l-1.38.02h-1.43l-.9.02h-.86s-.09.01-.09.01h-1.4s0,.01,0,.01h-.04v.02h-2.09s-.04-.01-.04-.01h-.23s-.03.01-.03.01h-.02s-.03.01-.03.01h-4.21l-1.07.02h-3l-.44-.02h-3.52l-.2-.03h-.23s-.02-.01-.02-.01h-.11l-.06.02h-.09s0,.01,0,.01h-1.54s-2.3.01-2.3.01l-1.03.02h-3.88s-.85.01-.85.01h-.6s-.11-.01-.11-.01h-1.9s-.03.01-.03.01h-2.09s-.36.01-.36.01h0l-.44-.02-.39-.02h-1.65s-.33.01-.33.01l-1.7-.03h-1.24l.02-1.97v-.34l.02-1.63h0v-.98s0-.17,0-.17v-.61l.02-1.35v-.06h0v-.84l.02-.49v-1.03s0-.76,0-.76v-.38s0-.44,0-.44l.04-1.51v-.66l.02-.97v-2.33h0v-.28h0v-3.44s0-.08,0-.08l.02-.22v-.04h0v-.04h0v-.9h0v-.73h0v-.11h.03l-.02-.09v-.52h0v-2.58l.03-2.87h0v-.76h0l.05-2.1-.04-.34h0v-3.1s0-1.57,0-1.57l.02-1.27h0v-2.64h0v-.11h0v-.03h0v-1.96h0v-1.6l-.02-.25.02-.32v-2.03h0v-.07h0v-.04h0v-3.37h0v-.23h0v-1.62h0v-1.31h0v-.49h0v-1.53h0v-1.58h0v-3.19l-.02-2-.02-1.13v-.6l-.06-.19.06-.06h0v-3.24l-.02-.84v-5.46l-.03-.68-.02-.14v-.09l.03-.11v-.05l.03-.88v-5.34l.02-1.16v-.55l-.03-.04h0v-1h0v-1.16s0-.21,0-.21v-1.79h0v-1.59l-.02-2.57v-.6l-.03-1.59v-1.63h0v-3.94h0l.03-.46h0v-1.36h0v-.66l-.02-.72h0v-1.15l.02-.39v-.62l.02-1.21v-.55s0-.06,0-.06v-1.18s0-.21,0-.21h0l.02-.12h-.02v-1.06h0v-3.68h0v-1.3s0-.14,0-.14v-.1h0v-7.74l-.02-.02v-3.38l-.02-.36v-1.79l-.03-1.54v-1.59h0v-2.35h0v-1.47s.01-1.4.01-1.4v-1.56l.03-1.81v-.18l.03-2.26v-.83l.03-1.44h0l.02-.51v-1.07s0-.37,0-.37v-.9h0v-.16h0v-.03h0v-.03h0v-.25h0v-1.73h0v-.91h0v-.98h0s.03-.01.03-.01h.25s.16-.01.16-.01l.21-.03.3-.06.36-.06h.2l.34.02.32.04.26.08.39.11.19.05.18.06h.18l.26-.1.29-.08.3-.03.38-.07.25-.06.25-.07.24-.1.21-.07.12-.03.14-.02h.71l.28-.04.3-.06.23-.04.26-.06.29-.1.37-.12.11-.04.33-.05.31-.1.36-.11.35-.08.25-.04.29-.05.17-.02.19-.02.17-.04.26-.07.33-.05.16-.02.19-.02.22-.1.2-.11.12-.05.34-.04.77.06h.14l.17-.04h.52l.12.03.22-.05h.4s.41.06.41.06l.26.07.06.02.29.1.47.17.35.08h.03l.25.05.1.02h0l.41-.02h.14l.32-.02h0l.34.04.25.04.24.09.1-.02.1-.02.15-.02h.09l.17-.04h0l.18-.06h.04l.13-.02.25-.08.19-.03.09-.02.05-.02h.05v-.02s.06-.03.06-.03h.11l.32.03.21.07h0l.21.07.4.16.2.17.23.24.22.26.11.2.09.13.19.27.11.39.05.12.05.54.07.13.1.08.22.1.23.1.17.05h.2l.24-.07.18-.07.12-.05.25-.09.24-.13.05-.02h0l.16-.07.08-.03.16-.06.21-.05h.06l.25-.05h.12l.16-.03.43-.07.08-.02h0l.1.02.13.09h.09l.1.1.13.1.3.24.17.13.25.26.17.25.16.1.07.04.15.1.27.07.19.08.19.1.16.07.07.04.1.05.15.07.12.11.14.12.12.14.13.13.11.13.14.13.17.16.17.2.13.11.16.22h0l.12.12.15.15h0l.12.11.13.13.12.14h0l.08.11.14.12.13.12.12.13.17.14.12.1.19.14.18.14.16.13.23.13.15.09.22.07.14.06.19.05.16.03.18.07.14.11.14.13.19.15.25.13.14.08.21.09.21.07.18.06.18.06.04.02.08.04.2.09.24.08.21.12.22.15.18.15.17.1.03.02h0l.18.09.18.08h0l.19.11.18.11.15.09.14.09.11.27.06.16.08.17.1.16.13.16.16.09h.13l.14-.02.26-.07.2-.07.23-.12.18-.14.18-.14.24-.18.03-.03.11-.11.36-.24.21-.13.12-.12.16-.11h0s.2-.17.2-.17l.06-.05.05-.04.04-.03h0l.08-.06.17-.09.06-.03.25-.1.21-.05.25-.02h.85l.31.02.17.03h.03l.2.04.23.04h.37s.07.01.07.01l.21.04h.2l.1.02h.36l.27.03.31.03.16.05.18.08.25.11.31.1.06.02.16.05.19.09.26.13.38.24.35.1.34.04.26.02.24.06.15.04.08.04h.09l.11-.03.22-.03.29-.02h.52l.22.04.31.04h.23l.28.02.2-.02.29-.1.29-.1.35-.11.15-.05.12-.02.1-.02.14-.04h.18l.27.03.31.1.3.13.34.3h0l.14.18.11.14.09.12.44.62.18.18.37.27.37.2.45.43.38.46h0l.06.08.3.31.23.12h.2l.13.03.11-.05.27-.06.29-.12.15-.08h0l.02-.04.03-.06.03-.04.02-.03.02-.11v-.09l.03-.1.02-.02.03-.03h0l.02-.04v-.12l-.02-.04-.02-.04-.03-.08-.08-.33v-.37l.03-.13.13-.27.13-.2.04-.06.12-.23.09-.21.06-.16v-.29l-.02-.19-.06-.26h0l-.02-.18-.03-.16v-.07h0l.03-.2.05-.09.02-.02.1-.09h.02l.09-.06.11-.04.06-.05h.02v-.03s.07-.05.07-.05l.06-.03.1-.05.14-.07.13-.06h0l.16-.12.02-.02.28-.17.05-.03.76-.44.08-.07.27-.25h0l.34-.38h0l.28-.38.12-.29.09-.22.12-.3h0l.13-.22.12-.11.13-.12.08-.07.31-.2.54-.27h.02l.18-.13.7-.48.14-.1h0l.13-.09.64-.44.43-.27.55-.28.2-.1h.04l.18-.03.25-.06.33-.06h.09l.16-.03.31-.02.25-.02h.95l.2.02.33.13.24.12.19.06h.02l.16.04.18.02.11.03.82.22.14.02.45.05h.03l.28.04h.02l.44.03h.14l.18-.02.29-.02.19-.03.34-.11.22-.05.27-.03h.2s.35.1.35.1l.36.11.43.1h0l.07.02h.04l.18.05h0l.15.02.28.04h.35l.21.02h.13l.29.02h.09l.09.02h.02l.04.02.14.04h.03l.43.17.41.14.17.03.12.02.4.04h.53l.29.06.31.06.61.06h.69s.08-.03.08-.03l.14-.04.34-.11.29-.1.64-.21.09-.04h.03s.54-.25.54-.25l.04-.02.46-.27.07-.04.21-.14.23-.15h0l.28-.16.36-.13.58-.13h0l.16-.02h.06l.1.04.24.05.24.02h.08l.05-.02h.05l.11-.02h.14l.3.04h.16l.21.03.32.04h.32l.25-.06.13-.03.13-.06.14-.08h0l.11-.09h.02l.04-.04.08-.07.05-.03.05-.03.06-.02.06-.02.16-.03.12-.03.55-.33.86-.51.07-.04h0l.09-.09.07-.09.06-.13h0l.08-.13.14-.15.08-.09.09-.1h0l.09-.1.29-.35.46-.77.02-.02-.04.33.39-.72.05-.16.16-.1.2-.24.25-.26.05-.03.07-.07.06-.07.11-.17.11-.22.4-.54.3-.41.42-.42.15-.13.06-.11.14-.31.11-.35.04-.12.08-.28.12-.4.02-.07.05-.09.06-.12.09-.13.09-.14.21-.22h0l.09-.07.14-.1.14-.05h0l.22-.08.43-.08.31-.02h.96l.14.03.27.06.09.02h.15s.03.01.03.01l.47.04h.34l.1-.03.47-.06.29-.04.46-.07.48-.07.09-.03.13-.09.11-.1.1-.12h0s.04-.04.04-.04l.07-.05h0l.03-.03h0l.05-.04.05-.02h0s.04-.04.04-.04l.03-.03.03-.03.02-.03.04-.03.05-.03.06-.03.07-.04h0l.05-.02.04-.02.02-.03v-.08s.03-.05.03-.05l.04-.07.05-.07.03-.05.03-.05.02-.04.02-.05.02-.05v-.04l.02-.03.02-.06.03-.05.05-.06.03-.05v-.05l.02-.06.02-.04.04-.04.07-.03.07-.02.07-.02.05-.03.05-.04.04-.04.02-.02.04-.02h.05l.04-.02h.07s.03.03.03.03l.05.02h.03l.03.02h.1l.05.03.05.02.04.03.05.05h0l.05.07.04.05.06.05.05.03h.04l.05.02h.4l.17-.05.07-.03.08-.06.05-.03.05-.06.08-.1h0l.09-.14.06-.14.16-.3.14-.17.35-.34.42-.16.53-.19.45-.26.24-.2h0l.14-.12h0l.1-.11.21-.24.2-.33.24-.48.06-.17.08-.14h0l.03-.04.18-.12.25-.13.13-.08.06-.06.03-.03.2-.32v-.02l.22-.33h0l.08-.13v-.02l.16-.23.16-.22.02-.02.16-.33.13-.34.11-.29.11-.32.04-.35.03-.33h0v-.03h0v-.06s-.04-.18-.04-.18l-.03-.15-.07-.17-.12-.3-.1-.25-.08-.2-.25-.48-.08-.15h0l-.34-.43h2.95l1.16-.02,2.81-.03,1.47.02h.36l.62.02h.24l.03-.03h2.96v.02h.01v-.03h4.13s.01-.01.01-.01h.92l.53-.42Zm40.64,2.53h.08v-.1h.01v-.05h0s-.02-.03-.02-.03h-.14v.06s.01.02.01.02v.04s.01.02.01.02l.02.02h.02v.02Z"/>
    </g>
    <g id="marker">
        <path id="southern_1" class="cls-4" d="m62.19,67.23c0,7.29-9.49,16.21-13.22,28.4-3.67-12.25-13.22-21.11-13.22-28.4s5.93-13.22,13.22-13.22,13.22,5.93,13.22,13.22Z"/>
        <path id="southern_2" class="cls-3" d="m204.03,18.92c0,7.29-9.49,16.21-13.22,28.4-3.67-12.25-13.22-21.11-13.22-28.4s5.93-13.22,13.22-13.22,13.22,5.93,13.22,13.22Z"/>
        <path id="southern_3" class="cls-3" d="m174.36,43.54c0,7.29-9.49,16.21-13.22,28.4-3.67-12.25-13.22-21.11-13.22-28.4s5.93-13.22,13.22-13.22,13.22,5.93,13.22,13.22h0Z"/>
        <path id="southern_4" class="cls-3" d="m189.17,33.26c0,7.29-9.49,16.21-13.22,28.4-3.67-12.25-13.22-21.11-13.22-28.4s5.93-13.22,13.22-13.22,13.22,5.93,13.22,13.22h0Z"/>
        <path id="southern_5" class="cls-3" d="m181.07,49.63c0,7.29-9.49,16.21-13.22,28.4-3.67-12.25-13.22-21.11-13.22-28.4s5.93-13.22,13.22-13.22,13.22,5.93,13.22,13.22Z"/>
        <path id="southern_9" class="cls-1" d="m237.84,161.53c0,7.29-9.49,16.21-13.22,28.4-3.67-12.25-13.22-21.11-13.22-28.4s5.93-13.22,13.22-13.22,13.22,5.93,13.22,13.22Z"/>
        <path id="southern_79" class="cls-5" d="m288.85,13.22c0,7.29-9.49,16.21-13.22,28.4-3.67-12.25-13.22-21.11-13.22-28.4s5.93-13.22,13.22-13.22,13.22,5.93,13.22,13.22Z"/>
        <path id="southern_80" class="cls-6" d="m279.86,92.46c0,7.29-9.49,16.21-13.22,28.4-3.67-12.25-13.22-21.11-13.22-28.4s5.93-13.22,13.22-13.22,13.22,5.93,13.22,13.22Z"/>
        <path id="southern_81" class="cls-6" d="m269.08,71.06c0,7.29-9.49,16.21-13.22,28.4-3.67-12.25-13.22-21.11-13.22-28.4s5.93-13.22,13.22-13.22,13.22,5.93,13.22,13.22Z"/>
    </g>
</svg>