<?xml version="1.0" encoding="UTF-8"?>
<svg id="ikr_svg" xmlns="http://www.w3.org/2000/svg" viewBox="0 0 588.63 711.51">
    <defs>
        <style>.cls-1,.cls-2,.cls-3,.cls-4,.cls-5,.cls-6,.cls-7,.cls-8,.cls-9,.cls-10,.cls-11,.cls-12,.cls-13{fill-rule:evenodd;}.cls-1,.cls-12{fill:#73429a;}.cls-2,.cls-4{fill:#799a3d;}.cls-3,.cls-4,.cls-5,.cls-7,.cls-10,.cls-11,.cls-12{stroke:#231f20;stroke-miterlimit:10;stroke-width:.5px;}.cls-3,.cls-13{fill:#90c740;}.cls-5{fill:#2eadbb;}.cls-6{fill:#1a3f4b;stroke:#010101;stroke-linecap:round;stroke-linejoin:round;stroke-width:2px;}.cls-7,.cls-9{fill:#b66329;}.cls-8,.cls-11{fill:#43a952;}.cls-10{fill:#4477b6;}</style>
    </defs>
    <g id="Region_6">
        <path class="cls-6" d="m16.15,7.5h.37l5.48-.04,1.29-.03,1.82-.02,5.37-.17,5.37-.16h.02l1.42-.02h.31l.42-.02,1.45-.04.71-.02.99-.02,4.16-.06,2.68-.06h1.9l3.38-.05,1.24-.02h.88l.74-.02h.95l2.93-.03h.27l9.41.09h.11l3.84.04h1.09s4.39.05,4.39.05h.2l.65.02h0l.89.02.97.03,3.02.09,3.6.1.78.02h.02l.47.03,1.55.1,2.03.13,5.02.02h4.82l.07-.03h.16l.58.02h.24l2.05.06h.56s1.4.04,1.4.04h.02l2.2.05h.04l2,.05h.46l1.32.06h1.05l2.54.05h.55l.56-.03h.19l1.1.05.56.02.18.02h.11l2.62.03.29.02h.94l.87.02h.94l.65.02h.3l2.92-.03h1.99l4.22-.03h3.46s.69-.01.69-.01l1.32-.02.12-.03h.25l1.55.02h1.2l1.03-.02h1.46s.05-.01.05-.01h.45l1.86-.04,1.07-.02h.59s.59-.03.59-.03h.47l1.1-.04,1.26-.03h.48l.33-.02h.2l2.06-.06.73-.02,2.47-.06.52-.02,1.39-.05,1.93-.05h.13l2.21-.07,1.78-.07,2.09-.07,2.07-.06,1.71-.05h1.15l1.03-.05,4.28-.13h0l.65-.02h.25l.83-.03h0l1.98-.05,1.59-.04,2.03-.05h.41l.87-.02h.73s.65,0,.65,0h.55l.08.03.38-.07.1-.02h.15l.18.02.34.02.12.12.35-.05h.31l.11.04.17-.08h.11l.19.04h.11l.07-.03.06-.04.05-.05.04-.03.06-.03h0l.13-.03h.65l.23-.08h.26l1.62-.08.34.05.09.02h.54s.46,0,.46,0l1.53-.02h.09l2.39-.06.92-.02h0v.04s0,.05,0,.05v.05s0,.05,0,.05l.02.04v.02l.03.02h.03l.03.02h.12l.03-.03.02-.02.02-.02.02-.03.02-.03v-.03l.02-.03v-.04l-.02-.03v-.03h0l3.23-.07.93-.02,1.35-.03.69-.02,1.79-.03,1.92-.03,2.01-.02,2.24-.02h.32l1.02-.02,4.08-.06h2.06l2.92-.02h.76l1.01-.02h0l1.39-.03h.09l.99-.02h1.41s.44,0,.44,0h1.09l2.33-.05h1.19s1.33,0,1.33,0l2.3-.04h2.47s.29,0,.29,0h.36l1.3-.02h20.09s1.98,0,1.98,0h5.36l2.26-.03h1.77s.09,0,.09,0h1.84l1-.02,4.71-.05h1.83s2.48-.05,2.48-.05l.04.03.05.03h4.02s.43,0,.43,0h.04l.04-.11h.53l.12-.02h.12l.49-.04h.4s.12,0,.12,0v.13h.34s.39-.03.39-.03h.21s.26-.03.26-.03h.1l.08-.03.11-.02h.01l.21-.04.33.02.25.05.27.06h2.58s.69,0,.69,0h.95s.81,0,.81,0l1.02-.03h1.79l.59.02h.59l.91-.02h1.3l.74-.19h.43v-.12h.3l.65-.02h.18l.18-.02h.38l.11.07h.66l1.08-.02h.25l.3-.02h1.35l.84-.04h.15l.82-.05h0l.08-.05.33-.02h.45s.31,0,.31,0h1.12l.07.05.57-.02h.4l.19-.02,2.01-.06h.42l.17-.02,1.68-.04,1.28-.04h.44s1.13-.05,1.13-.05h.06l1.87-.07h.46s1.3-.04,1.3-.04h.26l.75-.03h.17l.21-.02h.32s.06,0,.06,0h.33s.06,0,.06,0h.4l.31-.02h.22l1.07-.04,1.12-.04h.26s.09,0,.09,0l.71-.03.8-.03,1.7-.06,1.84-.06,1.33-.04h.09l.77-.03h.34l.19-.02.65-.02h.31l.37-.02h.38l.58-.02h.39s.46-.03.46-.03l.72-.03h.38l.99-.04,1.68-.05,1.88-.07,1.16-.04,1.52-.05,1.1-.04h.41l1.37-.07.68-.03.99-.04h.18l.96-.04,2.05-.09,1.25-.05.43-.02h.82l2.29-.09.77-.03.87-.03,1.98-.07,2-.07h.34l1.18-.05h.34s.41,0,.41,0l.02-.02,1.2-.04,2.98-.09,1.29-.04.77-.02h.48l.28-.02h.19l5.91-.19.78-.02.03-.02h.02l.28-.02.36-.02h1.55l5.52-.11h.02l.72-.03h.25l1.94-.06,3.78-.08.94-.02h.28l.95-.02,1.17-.02,1.34-.03h.68l.8-.02h.38l.69-.02h.75s.02,0,.02,0l.47-.02h1.55l.63-.02h0l.76-.02h.39l.68-.02.77-.02h1.48s.08,0,.08,0h.04l.24-.02h.16l2.49-.05.85-.03.34.02h.03l.05.02.18.05,1.04-.09h.07l.06-.03h.07l.19-.11.05-.02.05-.03.42.02.07.07.07.04.08.02h2.05l1.67-.02h1.08l.4-.02h.12l2.34-.02h.44l.75-.03,2.55-.03,2.6-.03h.29l1.4-.04.88-.02h.85l.72-.03h.99s.24,0,.24,0h.39l1.48-.02h.9l.81-.04h.73s.39,0,.39,0l.21-.03h.94l.83-.02h.9l1.18-.03h.45s2.01-.08,2.01-.08l.48-.02,5.16-.13,1.78-.04,1.28-.04,3.1-.1.56-.02,2.19-.09,1.64-.05.1.17v.02l.03.03.04.09.03.06.38.68.14.16.28.33.46.55,1.39,1.78.12.12.57.65.18.2.23.22.07.08.09.17.14.28.16.38.07.22.05.1.05.14.02.06.29.52h0l.04.11v.28s.02.39.02.39l.02.15.05.24.03.35v.03l.04.2v.17l.08.32.09.29.06.16.06.21.07.31.03.13.06.24.06.23.03.11.06.14.04.1.1.23.06.2.03.13.07.26.07.19.25.62.11.2.2.49.03.15.08.48.03.13.17.56.14.38.1.23.13.23.11.23.14.21.11.23.43.73.11.23.17.59.1.4.04.2.18.66h0l.02.09.05.13h0l.03.09h0l.05.15.22.49.05.13.07.12v.05l.03.26v.07l.12.37.02.13.04.2.02.07v.08l-.05.15-.04.3-.1.13-.06.12h0l-.05.19-.03.27-.07.32v.02l-.03.02-.07.02h-.03v.02h-.02l-.02.03-.1.17-.09.17-.12.32-.09.4-.12.43-.08.42-.02.13v.06l-.15.37-.05.14-.14.33-.09.07-.02.02h0l-.04.13-.02.1-.03.15-.07.26-.07.16-.25.42-.24.74-.06.24v.14l-.02.07-.03.07h0l-.09.16-.07.11-.03.06-.06.14-.25.88-.19.52-.61,1.01-.07.21-.07.1-.03.08v.14l-.04.03-.09.03-.03.03-.04.05-.26.48-.04.06-.05.08-.02.04-.03.07-.02.09-.04.06-.1.12-.04.08-.27.67-.18.59-.09.26-.03.09-.04.13-.07.38-.22,1.53-.1.9-.02.05-.06.06h0l-.05.04-.04.04v.02l-.26.54-.3.59-.26.58-.12.31-.04.19v.12l-.05.23v.04l-.05.19-.15.6v.26s-.03.08-.03.08l-.23.23-.02.04-.02.25-.07.34v.37s-.05.18-.05.18l-.24.56-.29.71-.13.28-.04.09-.04.07-.23.41-.07.19-.12.28-.14.23-.07.18-.02.12-.1.35-.07.17-.08.17-.1.14-.13.09-.05.07-.04.07-.03.18-.02.06-.07.14-.18.3-.31.46-.1.19-.08.12-.13.15-.09.14-.27.47-.17.33-.27.51-.22.33-.04.09-.02.06-.02.15-.03.05-.04.04-.02.03-.06.28-.06.09-.08.09-.03.06-.27.76-.08.29-.09.25-.08.14-.07.08-.17.14-.11.11-.14.18-.08.14-.3.63-.24.72-.29,1.02-.13.26-.04.12-.09.37-.03.19-.02.3-.02.28-.07,1.07-.02.92v.31l.02.44v.06l.06,1.17.05.49.03.66h0v.02h0v.11h.01v.03l.02.22v.03l.03.27.05.44.03.37v.03l.05.34.28,1.35v.06s.01.06.01.06h.01l.02.11.26.77.04.23.04.18.04.19.23.38.06.08h0l.04.06.07.12.05.09.06.21.04.24v.1l.03.1.03.35.09.28.15.31.04.09.05.12.11.39.18.65.34.9.41.88.31.63.13.21.31.48.09.14.34.5.18.44.28.59.28.43.25.35.22.23.14.25.06.15.05.18.06.22.1.33.11.23.1.19.06.09.13.15.16.12.18.17h.02l.16.18.06.07.47.62.07.1.09.19.1.2.09.1.09.05.04.02.08.1.08.14.03.04.18.15.24.33.05.11.04.15v.05l.04.06.29.34.18.26.05.08.05.06.07.05.32.38.26.27h.01l.21.22.03.06.03.06.04.03.12.09.07.11.29.32.1.06.07.08.05.09h0l.21.25.06.06.26.24.05.08.05.11.03.04.07.1.08.06h.02l.08.09.41.4.45.44.28.31.06.07.25.28.12.16.07.02h.03l.07.02h.06l.04.03.03.03.12.18.09.1.03.02.09.03.07.07.07.1.06.13.03.22.02.21.03.12.02.03.12.11.03.04.02.07v.11l.03.05.03.04.25.24.06.03.08.07.16.21.11.06.08.03.15.1.44.42.12.13.17.14.09.08.61.5.19.15.4.23.22.14.14.12.04.03.03.02.09.03.09.05.21.15.14.17.14.33.09.12.1.21.46.68.1.2.12.13.04.08.02.1.04.16.03.06.02.09.05.53v.16h-.01s.03.12.03.12l.06.11.08.21.05.22.04.21.03.17.05.25v.02l.06.2.12.31.05.24.06.13.26.34.1.13v.08l-.05.19v.15s.16.63.16.63l.06.29.06.22.05.1.1.14.11.3.18.6.08.21.18.36.13.32.06.09.23.55.1.23.05.16.2.39.16.2.12.12.04.08.05.18.1.47.06.28.04.18.06.16.08.17.18.25.12.08.05.05.05.07.03.09v.21l.02.04.08.08.02.02h0s.03.09.03.09l.02.22.03.11.28.42.06.14.05.15v.09l-.04.16v.17l.05.18.09.19v.24l-.02.16v.17l.05.21.02.07v.08s.01.04.01.04v.21s-.01.08-.01.08v.96l.02.03.08.04v.58l-.02.05-.07.05h-.02v.05l-.02.1-.06.27-.02.06v.26h.01s.07.32.07.32l.05.18v.04h.01s.02.08.02.08l.2.67.02.07.03.11h0l.02.07v.02l.36.87.02.04.1.19.33.67.23.33.26.38.51,1.32.23.61.23.48.08.15.22.49.16.25.02.03.04.07h0l.07.08h.05s.12,0,.12,0h.39l1.04-.04h.29l.05.03.06.08.02.07.02.06h0l.08,3.31v.12l-.08.08-.27.47-.06.08-.09.13h0s-.17.17-.17.17l-.12.11-.05.05-.32.29-.16.16-.14.18-.07.11-.08.13-.03.04-.2.24-.04.08-.02.08-.1.29-.04.1-.12.25-.06.1-.1.15-.14.22-.12.16-.11.18-.16.35-.05.15h0v.03l-.03.09-.07.26-.03.12-.18.33-.1.27-.06.31v.26l-.04.15h0l-.04.09-.06.06-.04.02h-.05s-.45-.02-.45-.02h-.12l-.1.03h-.01l-.15.12-.79.89-.21.26-.1.18-.04.1-.02.04-.06.04-.09.03-.05.02-.07.09-.13.23-.38.49-.72.96-.54.84-.36.65-.19.35v.21l.04.07v.29l-.08.62v.07l-.05.08-.04.09-.14.18-.15.13-.23.13-.04.04-.04.03-.12.12-.61.66-.33.39-.02.06v.39s-.04.13-.04.13l-.28.38-.04.03h-.07l-.08-.06h-.06l-.04.04-.45.48-.51.63-.05.09v.15l-.02.09-.03.08-.5.57h-.06l-.02-.04v-.1s.01-.07.01-.07l-.02-.04h-.19s-.16.09-.16.09l-.17.14-.06.09-.04.15v.25l.02.07v.02h.25l.02.03v.06l-.55.62v.1l.05.12.13.25.15.37v.05l-.1.04h-.02v.07l.22,4.85h.07l.02.04v.13l-.04.03h-.1l-.64-.04-.68-.02h-.18l-.02.02-.02.02-.16.21-.67,1-.58.8-.73.6-.32.2-.13.08-.53.29-.34.18-.25.11-.87.29-.24.03-.74.08-1.59.06h-.74s-.04,0-.04,0l-.05.02-.03.03-.03.05-.39,1.1-.21.66-.05.22-.18.73-.08.39-.07.57h0l-.03.71v.13s.01.04.01.04l.04.03.06.02,1.05-.1h.09v.12l.29.04.13.02.14.03.09.03.07.04.06.05.05.07.06.12.04.14v.31s-.3,2-.3,2v.04l-.03.02h-.06l-.03-.02v-.03l-.02-.03v-.06l.13-.92v-.17s-.01-.11-.01-.11l.13-.91v-.14l-.02-.07-.03-.07-.03-.05-.05-.04-.04-.03-.05-.02-.07-.02h-.13l-.07.02-.06.03-.12.08-.04.03-.02.03v.08l-.02.09v.08l.03.05.03.07.02.07v.17l-.03.07-.04.05-.05.03h-.11l-.05-.02-.04-.03-.03-.03h0l-.29.02-.98.09v.05l-.03.25h.03s.04.04.04.04l.04.05.03.07.02.08v.1l.02.1v.13l-.08.5v.11l.04.15.03.12.06.12.06.1.06.08.03.05.02.05v.07s-.09.06-.09.06h-.07l-.05-.03-.05-.03-.06-.04h-.06l-.06-.02h-.05l-.05.04-.04.04-.03.06v.04l-.02.04-.02.16v.1s-.01.05-.01.05l-.04.26-.22,1.74-.06.5-.09.69v.23s-.01.04-.01.04v.24l.03.19.05.2.07.17.11.17.12.16.13.14.15.13.64-.04.25-.02v-.09l.02-.06.02-.07.03-.06.1-.11.02-.02.08-.09.08-.13.06-.17.03-.13.02-.14v-.15l-.02-.17-.06-.24-.08-.21-.1-.19-.1-.16-.1-.13-.13-.13-.21-.15-.18-.11-.24-.11-.04-.03-.02-.04-.02-.06v-.13l.02-.05.04-.04.05-.03.12-.07.09-.07.08-.08.06-.07.07-.09.06-.1.05-.13.04-.13.02-.11v-.36s-.01-.04-.01-.04l-.03-.07-.03-.1-.05-.1h0l-.12-.19-.02-.03v-.08l.02-.04.05-.04h.04l.05-.02h.06l.05.04.07.02h.18l.09-.02.08-.03.08-.04.06-.05.05-.07.03-.05.04-.06.04-.09.03-.08.06-.57v-.03l.03-.02h.05l.02.02v.03l.02.03v.04l-.08.59v.04l.03.03.02.03v.05l.04.38.03.25.14.73.1.26.13.28.16.42.06.19.04.19.03.24v.5l-.04.31-.05.27-.08.32-.02.06-.02.05-.16.25-.08.12-.16.19-.11.1-.04.03-.05.02h-.05l-.03.02h-.07l-.02.04-.02.04v.02l-.03.02-.04.04-.04.03-.04.03-.02.04-.02.05v.05l-.02.05-.03.04-.04.03h-.04v.02s-.01.04-.01.04l.11,2.77.41-.03v.1l-.71.07.46.29.55.37.05.04.04.06.05.11h.03l.02.02v.03l.39,1.88.02.14v.06l-1.35,1.64-.07.09-.69.89-.11.18v.04h0v.06l.11.41.08.1.02.02h.11l1.51-1.89h.06l.03.02.27.71.02.09v.09l-.03.02-.02.04-.83,1.01-.38.47-.4.57v.09l.08.22.12.3.05.05.02.02h.07l.08-.05,1.49-1.82.06-.02h.08l.06.11.51,1.26v.21s-.35.41-.35.41l-.05.06-1.12,1.34-.16.26v.1l.04.1h0l1.8,5.06.6,1.75.17.49.4,1.13.06.05h.02l.3-.09,1.89-.7.52-.21h.16s.06.04.06.04l.17.27,1.82,2.36.18.25.14.22.09.08.02.05-.02.05-.22.24-.14.14-.77.77-.65.68-.33.34-.06.06-.19.19-.12.12v.07l.06.05.3.29.48.47.04.06v.04l-.02.02h0l-.77.75-.02.06.02.03h0l.05.04h.05l.05-.04.13-.14.15-.16h.1s.04.04.04.04l.52.71.24.32.12.14.04.1.03.29v.06l.02.04.23.27.3.33.25.28.31.27.19.15.17.08.19.05.2.02.26-.05.17-.07h.04l.05.07.17.21v.04l-.03.1-.14.34v.17l.04.12.04.08.04.07.1.06h.02l.05.12v.08s.04.06.04.06h0l.26.21.16.15.12.2.08.14.16.29.22.38.16.23.09.18.19.29.19.21.19.14.09.07.34.34.31.26.32.37.21.22.36.32.57.44.59.36.32.18.05.03.29.19.21.11.16.11.02.06v.22l.02.06.03.04.35.34.49.38,1.07.83.09.08.14.15.61.43.52.39.5.38.74.57.22.15.13.09.43.19.16.1.48.39.71.65.38.38.02.02.35.29.31.21.13.09.19.17.46.58.24.28.41.37.18.15.02.02.13.09.2.12.17.12.08.05.15.09.1.11.31.4.16.2.11.14.12.18.09.13.1.15v.02l.09.15.22.28.12.11.06.04.1.03h.21l.06.02.18.14.19.19.38.43.32.39.75.86.09.05.19.06h.93l.1.03.03.02.27.6v.08l-.05.11-.1.08-.3.19-.11.07-.03.05v.07l.06.08.05.07v.04l-.05.04h0v.06h.02s.18.2.18.2l.06.03.23.02h.05l.04.03.02.03v.34l.05.29.05.13v.02l.06.11.2.32.24.38.03.08.08.21.09.14.09.14.09.06.22.2.08.1.42.41.22.24.16.25.44.6.19.23.31.34.06.08.2.36.12.25.11.28.07.24.16.39.38.71.5.97.4.93.08.2.13.36.09.29.06.11.03.13.03.12.03.16v.56s.05.05.05.05l.66.78.12.16.05.13.18.72.09.16.27.47.21.27.04.07v.24l.05.08.12.34.05.13.06.28.06.33.04.24.08.58.03,1.06.02.12.03.32v.22s-.02.11-.02.11v.34l-.04.07-.04.03h0l-.02.04-.02.05v.36l-.02.06-.04.1v.43h0v.03l-.11.05-.05.04-.09.14-.06.13-.04.11-.02.23.12,1.01.06.25.03.11.2.56.2.51.23.52.09.2.55,1.34.04.08.03.03h.02l.09.06.03.03.05.1.03.24.02.24-.03.07-.13.16-.02.04v.23s.01.2.01.2l.04.14.08.22.06.18.02.08.04.19v.14l-.04.07-.03.09-.02.11-.02.08-.02.26v.54l.05.12v.14l.02.15-.02.08-.04.22v.15l.05.37.15.73.09.37.17.47.03.2.02.2v.61l-.04.29v.19l.06.46.02.09h0v.12s-.01.1-.01.1l-.06.41-.13.52v.04l-.13.4-.3.8-.04.17-.11.63v.03l-.06.27-.11.65-.09.51-.1.57.02.9v.12l-.11.32-.02.13-.1.72-.04.33-.05.24v.14l.02.21v.11l-.06.13v.21s-.01.07-.01.07l-.05.06-.02.05-.02.13-.02.4-.02.18-.05.25-.08.31-.09.5-.02.29v.37l-.03.16.02.62v1.18s.08.2.08.2v.08l-.03.37v.14l.03.1.02.27.03.19.13.63.09.62.04.18.16.48.18.48.04.14.02.11.04.58.02.15.03.12.08.24.29.61.21.54.07.22.08.4v.14l.07.16v.02l-.09.03-.03.02v.03l-.02.1.03.26.12.52.11.24.02.08.09.4.02.06.11.2.03.15h0l.14.3.21.53.14.32.18.36.12.22.42.75.24.48.13.24.08.12.27.47.09.15.27.55.4.71.02.03.19.29.2.24.02.04h0l.02.12v.61h0v.07l.07.38h0v.1l.02.14h0v.2s.01.03.01.03v.06s-.08.1-.08.1l-.33.27-.08.08-.09.12-.08.13-.03.1-.09.28-.22,1.04v.32l.02,1.63v1.3l.07,1.33v.05l.14.06.03.03v.02h0s-.04.03-.04.03h-.02l-.19-.06h-.16l-.11-.05-.06-.06-.03-.03-.39-.14-.39-.14-.42-.15h-.12l-.04.03-.04.03-.02.04h0v.08l.03.07.28.15.02.03h0v.15l-.03.05-.04.05-.19.24-.11.17-.13.22v.12l.44.24.11.04v.05l-.05.02h-.36s-.06.01-.06.01l-.08.07-.41.26-.36.29-.14.15-.12.16-.22.37-.11.19-.09.19-.18.45-.06.18v.11l-.14.25-.1.31-.11.46-.05.51v.11l.04.18-.02.1-.05.07v.02l-.02.03v.05l-.03.17-.06.18-.03.04v.02l-.07.15-.07.26v.06l-.02.11v.37l-.05.25v.65h.01v.14l.03.06v.1l.04.04h.04l.05.03.02.03v.37l-.04.02-.04-.02v-.03h-.02v-.2l-.03-.03h-.04l-.09.08v.02h.07s.01.01.01.01v.16h-.1s-.08-.01-.08-.01v.02h-.01l-.19.12-.04.04-.03.06-.06.26-.03.06v.38l-.03.14v.13l-.05.21-.03.22v.13l.07.32.09.55.08.39.06.2.06.15v.31l-.03.1v.07l.11.55.03.14.15.47.1.26.15.33.09.16.02.1.02.2.06.18.18.35.04.16.48.63.07.02h1.51l.11.02.08.05.09.13v.07l.02,1.76v.6l.04.31v.59s.01.19.01.19v.1l-.03.68h0v.58s-.01.07-.01.07l-.05.08-.06.05-1.45.81-.35.21-.07.06-.04.07v.06l.13.38.15.39.42,1.23.08.17.18.34.03.19.02.06.08.16.08.14.06.07h.25l.02.08v.19l.03.05v.09l.03.1v.1l.02.08-.02.06h0l-.07.14h0l-.02.08v.25l.03.07.1.17v.27l.02.23v.17l-.04.2v.15l.04.17.02.03h.1l.03.05.05.22v.02l.09.29.08.35v.03l-.06.06v.15s.31.53.31.53l.02.06v.13l.1.2.03.07v.06l.02.28v.1l.1.32.06.12.04.06.1.31v.15l-.02.06-.06.09-.13.07-.17.14-.09.11-.03.06v.17l.05.13v.21l.13.32.17.39.16.41.23.48.1.14.02.14.07.23.02.04.06.14.11.21.06.18.17.36.03.08.11.27.16.37.04.04.21.16.11.12.06.11.07.11.06.07.08.07.08.12.1.25.14.26.09.29v.04l.02.1v.11l.1.18.02.07v.14l-.02.07-.09.13v.18l.12.21.02.07v.07l.03.1v.07l.1.3.04.08.08.17.1.15.02.02.08.08.05.12.08.19.07.09.04.06.19.48.14.29.1.28.17.55.32.91.07.12.09.14.05.09.11.32.05.2.11.32.02.17.02.1.06.19.07.39.09.25.13.39.22.8.07.14.1.14.07.18.05.17.1.18.16.4.05.23.21.58.06.11.22.39.16.33.38.86.26.53.73,1.31.15.3.34.63.27.4.2.32.47.67.42.48.2.2.54.68.28.38.48.47.17.11.27.21.2.12.15.02.5-.23.48-.18h.08l.06.03.03.03.03.02.02.02.04.05.12.32.08.22.2.42.4.94.13.33.21.53v.04l-.05.04-.3.12-.72.34-.69.29-.32.12-.04.04v.04l.03.18v.04l.24.62.19.38.06.13.21.42.3.71.07.18.05.12.04.12.04.1v.03l.04.08.14.4.43.96.33.76.03.08v.08l-.13.29-.05.15-.02.13v.15l.08.3.07.15.06.19.04.19.04.26.11.19.08.11.08.13.08.2.18.69.08.17.15.24.09.2.05.15.02.45-.04.03-.05.11v.19l.08.23.12.16.31.37.79,1.19.52.74.18.22.15.2.23.29.16.23.6.94.13.23.51.76,1.05,1.4.55.71.55.73.36.49.4.47.24.22.64.74,1.6,1.91.19.2.27.33.39.42.13.11.73.78.18.19.06.06.14.13.63.64.26.3.68.84.17.25.17.23.41.43.45.41,1.58,1.83,1.12,1.44.31.37.06.07.97,1.11.22.23.5.58.21.22.3.37.53.72.1.1.08.11.07.07.08.05.07.02.05.04.07.09.13.2.06.06.18.16.18.24.67.69.77.94.04.06.71.84.12.12.75.78,1.06.92.36.35.63.68.94.82,1.11.88.68.45.49.4,1.08.9.33.29.08.08.05.09.12.1,1.48,1.22,1.97,1.53.27.21.3.25.65.52.96.81.18.15.08.07.15.15.04.09.09.08.73.51.64.48,1.62,1,.46.22.77.46.67.42.19.14.38.32.14.09.19.09.75.27.16.09.1.05.17.12.17.16.15.17.54.77.38.48,1.63,1.88.84.91.07.07.1.11.06.03h.07l.02.03v.02l-.06.04v.09l.13.11.76.58.09.05.05.03.11.04.04.03.02.04v.03l-.03.08v.16s.25.58.25.58l.15.28.12.17.06.06.14.15.12.15.24.23.12.1.14.09.09.07.04.05.09.16.07.15.03.08v.11l.02.17v.48s-.07.2-.07.2l-.06.16-.12.21-.08.25-.04.08-.26.27-.12.09-.06.04-.05.11-.02.03h-.13l-.21.04-.09.05-.23.15-.21.21-.18.12-.38.23-.06.07-.13.29-.04.06-.11.14-.05.14-.05.21-.06.16-.04.07-.08.08-.12.07-.19.04h-.42l-.1-.02-.24-.09h-.21l-.12.04-.14.11-.12.08-.04.02h-.06l-.03-.02h-.07l-.08.03-.13.1-.09.1-.09.15-.02.02-.39.36-.09.06-.15.08-.24.1-.08.06-.2.2-.2.23-.09.13-.11.33-.05.1-.14.21-.23.26-.23.24-.49.47-.46.38-.15.14-.11.13-.29.5-.24.44-.48.69-.15.25v.08l-.03.02h-.13l-.14.13-.13.18-.12.26-.22.23-.11.09-.07.07-.21.31-.3.4-.15.19-.02.06-.04.17-.04.05-.07.02-.02.02-.02.03v.1s.05.02.05.02v.03h-.02s-.08,0-.08,0h-.06l-.07.06-.07.13v.09s.05.06.05.06v.03l-.02.02h-.04l-.03-.04h-.03l-.04.02-.08.11-.05.11v.11h.03v.06h-.16l-.05.02-.1.22v.04l.02.02v.07s-.05.02-.05.02l-.04.05-.05.08-.03.07-.12.45-.06.19-.09.22-.03.05-.1.15-.03.08-.02.08v.03l.02.02h.03v.05h-.07l-.03.02-.07.12-.05.16v.11l-.07.2-.04.14-.03.19-.03.02h-.03l-.04.03-.14.28-.02.09v.17l-.05.08-.05.11v.03h.02s.03.01.03.01h.01v.03l-.02.02h-.06l-.07-.03h-.09s-.05.06-.05.06l-.06.1-.08.21-.08.26-.12.68-.02.06-.03.31-.26.5v.02l-.12.16-.07.11-.06.28-.07.49-.04.3-.09.51-.03.14-.09.29-.12.51-.05.14-.05.08v.08l-.16.66-.02.26-.03.06-.05.06-.04.1-.04.14-.05.11-.05.23-.05.35-.03.36-.03.2-.05.24-.12.73-.08.36-.09.37-.17.56-.02.27v.27l-.07.32v.5l-.04.37v.19l.03.18v.11l-.08.55-.09.44-.03.23-.05.37-.06,1.26v.81l.02.82v.9l.02.24.13,1.03.15,1.02.13.82.06.29.15.64.27,1.1.22.75.34.85.12.3.31.96.24.68.07.16.06.1.13.32.03.06.02.11v.1l-.04.14v.03h.02s.06.01.06.01l.62.12.46.09,1.41.3.06.02.08.07,1.32,1.43.2.24.56.57.08.07.81.54.08.09.07.05.16.08.13.11.04.06v.1l-.02.06-.03.06-.07.07-.09.05-.06.02h-.08l-.08-.02-.06-.03-.03-.05v-.16s.01-.12.01-.12l-.02-.06-.05-.06-.19-.14-.4-.26-.19-.14-.33-.33-1.29-1.4-.39-.39-.05-.03-.11-.04-.08-.06-.07-.07-.08-.11-.04-.02-.24-.09-1.07-.27-.3-.06h-.15l-.07.03-.05.04-.1.15-.07.1.02.07-.04.06-.08.05-.05.05-.13.22-.04.06-.05.12-.02.09v.11l-.04.22v.11l-.04.17v.66l.02.09.04.09.15.25.11.19.16.21.08.09.03.07.02.11v.13l-.05.16-.13.19-.24.36-.18.26-.36.42-.15.21v.07s.02.11.02.11v.05l-.05.09-.02.06v.06l.11.73v.18l-.03.04-.07.04-.71.14v.14l-.17.04-.02.02-.02.04v.04l.16.78v.03h.03s.09.01.09.01h.3l.71-.14.13-.04.05-.03.04-.05.03-.05.02-.06.02-.03.03-.02,1.46-.27.21-.04.26-.04.84-.16.21-.05.12-.04.04-.04.04-.06.02-.05v-.05l-.03-.16-.17-.92v-.04h.03s.11-.04.11-.04l.49-.08.27-.08.13-.05.13-.1.11-.12.08-.14.05-.12.02-.15v-.26l-.02-.11-.08-.14-.1-.14-.08-.07-.1-.07-.14-.06-.12-.03-.14-.03h-.14l-.48.06h-.02v-.06l.04-.03.95-.18h.06l.07.02.2.12.7.36h.08l.03-.03h.04v.07l-.06.09-.76,1.41-.51.98-.55,1-.07.15-.04.05-.06.05-.23.1-1.44.68-.02.04-.07.28-.02.15-.04.1-.04.02h-.08l-.06-.04-.02-.02v-.09l.04-.06.05-.06.04-.1.02-.1v-.2l-.03-.12-.04-.14-.05-.1-.06-.08-.1-.09-.17-.11-.08-.04-.16-.03h-.18l-.17.03-.36.08-.57.1h-.02v.04s-.01.05-.01.05l.06.31.05.05.11.05v.04l-.1.17v.04l.07.34.03.04.04.02.4.08h.18l.02-.02.03-.23.03-.03.05-.02h.06s.02.03.02.03h.03l.42-.17h.05s.02.05.02.05v.04l-.05.03-.32.15-.07.06-.02.03v.03l-.02.08v.62l.02.13.1,1.59.09,2.08.1,1.89.06.93.04.75v.17l.1,1.04v.27l-.02.07v.02l-.02.02-.06.04h-.02l-.06.03h-.14l-.1.06-1.13.35-.28.12-.24.12-.14.15-.05.1-.07.18-.04.12-.24.78v.12l.02.02h.02l.02-.04h.02v.02l-.04.13-.02.13-.1,1.24v1.95l.03.93v1.18s-.1.28-.1.28l-.02.08v.08l.04.26.02.05.14.22v.12l-.1.17-.05.17-.02.23v.94l-.07.44-.02.1-.07.23v.07l.03.05.06.07v.08s-.1.36-.1.36l-.05.19-.74,2.29-.15.36h0l-.04.08-.1.52v.23s.01.15.01.15l-.06.21-.06.38-.04.13-.04.08-.03.08v.31s-.05.14-.05.14l-.37,1.97-.04.17-.03.08h0l-.04.03-.17.04-.81.04-.07.02-.09.05-.06.02h0l-.08.1-.02.03-.06.19-.18.69-.15.44-.16.38-.13.26-.03.12-.04.72-.03.17-.04.14-.02.03-.13.11-.03.02h-.34l-.04.02-.07.07-.07.09-.12.22-.08.2-.03.23-.02.7-.03.15-.06.25-.06.19-.05.1-.07.1-.3.37-.48.62-.04.02h-.28l-.09.03-.03.02-.1.07-.13.11-.11.13-.4.53-.04.06-.05.14v.04l-.06.36-.03.07-.04.07-.25.32-.02.07-.05.13-.06.12-.16.24-.13.23-.12.29-.12.22-.09.13-.1.09-.17.22-.26.35-.11.19-.03.06-.05.16-.36,1.31-.09.39-.33.89-.05.35-.13.67-.02.21-.04.19-.02.07-.03.08-.05.37-.12.71v.1l-.04.06-.03.05-.13.15-.26.63-.05.23-.02.06-.03.05-.2.26-.26.37-.21.26-.13.18-.25.48-.2.44-.15.25-.04.08-.07.23-.08.16-.02.06.04.08v.05l-.02.03-.09.06-.02.02-.08.17-.1.3v.13l-.02.04-.17.24-.23.38-.08.11-.03.06-.02.19.04.2-.02.03h-.08l-.03.02-.03.04-.05.14-.02.11-.07.17-.06.08-.04.11-.02.21v.06l-.05.05h-.06l-.03.02-.41.43-.05.06-.04.08v.05l-.11.25-.1.54-.07.14-.02.09v.25l-.02.08-.04.06-.03.03h-.13l-.03.02v.04l-.04.24-.03.12-.03.06v.06l-.02.3-.02.03h-.14l-.05.03-.05.06-.08.24-.09.17-.08.23v.4s.01.18.01.18l-.03.3v.34l-.02.08-.24.33-.12.23-.04.22-.07.55-.02.35-.03.31-.04.18v.11l-.02.08-.04.07v.65l.05.12v.04l-.05.12-.08.41v.04l-.03.22-.04.46-.03.59v.1l-.05.3-.05.35-.13.48-.1.17-.04.11-.07.11-.03.14v.14l-.03.06-.02.04-.03.04v.03l-.08.19-.04.05h-.03l-.02.02h-.13l-.08.04h-.01l-.08.05-.12.1-.08.1-.07.12-.04.04-.02.03v.11l-.05.07v.26l-.04.25-.19.86-.02.24-.02.06-.04.06h-.03l-.02.07-.02.33v.07l.02.15-.02.04-.05.04-.03.06-.03.14v.68s-.03.03-.03.03l-.03.02-.07.02h-.14l-.07.03-.07.06-.07.1-.02.12v.16h-.07s-.08.04-.08.04v.2l.03.12v.03h-.12l-.03.02-.02.11v.11l.06.08-.02.03-.09.04v.17l.05.08v.1l-.09.03v.48s.06.47.06.47v.41l-.08.71v.03l-.03.13-.08.19v.02l-.05.07-.03.06-.02.03-.05.08v.02l-.04.04-.12.16-.08.06-.07.12-.05.2-.06.88-.05.35-.1.34-.04.23v.95l-.02.08v.02l-.04.11-.02.04-.04.07-.07.18-.08.27-.16.89-.35,1.29-.06.11-.06.13-.03.08-.04.25v.44l-.02.02h0l-.09.05h-.19l-.09-.03h-.01l.06.2v.06l-.13.14v.05l.06.03v.04l-.11.18-.09.16-.07.18h0l-.07.14-.07.07-.04.04-.04.07v.02l-.06.14-.07.31-.04.97-.02.07h0s-.07.12-.07.12l-.07.2-.05.18-.06.16-.09.22-.06.23-.06.07-.02.05-.02.13v.23l-.04.08.02.06.03.03.06.06v.15s-.06.39-.06.39v.04l-.02.05-.04.09-.02.03v.02l-.13.11-.06.09-.06.2-.03.07-.09.13-.02.06v.12l-.03.08-.05.17-.02.25.02.47.03.21.03.21.03.14v.07s-.06.07-.06.07l-.09.07h0l-.05.09-.04.12-.03.24v.56l.02.18.05.21.02.08v.07l-.1.15v.12l.03.06h0v.05l-.07.22-.03.08-.03.14v.86l-.02.27-.1.29-.05.06v.05s-.01.28-.01.28l-.03.08-.04.1-.02.26-.02.18v.14l-.05.11-.05.07-.03.13v.2l-.02.02-.16.28-.04.13v.06l-.02.08.02.48.05.4.04.16.11.43.02.14v.12l-.04.14-.03.24v.25l.07.34h0l-.02.13v.21s.05.32.05.32l-.03.31v.07s.05.14.05.14v.02l.02.02v.04l-.07.04v.04l.02.14v.24l.05.13v.04l-.02.02-.05.02-.03.03v.22s-.03.03-.03.03l-.02.02h-.11l-.08.03-.04.06v.02l-.02.03-.04.11v.04l-.02.13v.11l.06.26v.11l-.02.2-.05.15-.06.18-.05.17-.04.15v.05l-.12.38-.04.15-.08.38v.11s-.05.53-.05.53l-.06.26v.05l-.03.15-.03.2v.21l-.05.13-.03.13-.06.17-.1.3-.04.3v.36s-.04.29-.04.29l-.02.15.02.18.02.17v.29s-.01.04-.01.04l-.06.08-.24.32-.04.08-.02.09-.03.47v.97l-.04,1.41v.95l.04.47.04.43v.57l.02.19.06.68-.05.2-.03.16-.03.47v.11l.02.66.09.5-.04.11v.06l.02.16.21,1.05v.05l-.05.11-.02.09.04.56.03.2.13.46v.07l-.03.07v.08l.1.43.04.26.09,1.02.03.11.12.39.06.22.04.22.13.72.14.71.19.66.02.07.02.05.03.07.33.92.13.26.04.17.11.2.08.29.08.22.15.5.09.25.04.19.09.31.06.31.03.15v.06l.03.11.05.46h.1l.04.03.03.03h0v.04l.04.1.23,1.19.17.97.19.96.11.59.16.87.05.21.06.26.17.91.04.28h0v.05h-.02s-.01.01-.01.01l-.44.03-.05.05-.02.03-.03.07v.02l-.02.16v.36l.02.4v.02l.03.1.04.08.06.13.02.04.02.06.11.3.06.14.14.36h0v.02h0l.13.44.09.24.03.08.03.05.09.1.06.08.05.09h0l.08.13.12.24.04.07.15.23.03.05.08.09.14.2.11.11.06.09.02.03.07.15.15.2.07.08.11.11.08.19h.01l.16.19.06.1.05.1.07.15.08.16.39.5.12.14.33.42.05.09.03.06.05.02h.08l.77-.09,1.25-.12h.01v.1l-1.22.13-.91.09-.67.07h-.07l-.32.02-2.51.25-.06-.12-.4-.79.03-.03.19-.06v-.03l-.06-.24-.02-.02h-.3l-.04-.04-.03-.02-.24-.65h-.03l-.35.17-.22.06-.07-.07v-.02l.05-.05v-.03l-.19-.16-.04-.06-.08-.33v-.06h0v-.07l.12-.09.1-.06.14-.43.1-.24.44-1.28v-.2l.27-1.43v-.03l-.05-.02.02-.13v-.04l-.18-.03h-.02l-.09-.02v.04h-.1s-.02-.01-.02-.01l-.1.38-.07.16-.08.22-.02.04h-.09l-.1.46v.06h.02s-.02.09-.02.09v.03l.06.03-.09.35v.02l.02.02v.03l-.06.03-.06.25-.1.26-.02.1.03.05-.16.4-.11.24-.08.2-.03.03-.13-.06-.07.13-.08.04-.02.02v.13l-.08-.03h-.02l-.11.32v.03l.13.07.15.05h.02l.06.06.11.23.05.09.14.15.02.06v.08l.03.03.27.3h.06s.03-.01.03-.01l.15.18v.14s-.05.28-.05.28l-.45,1.08-.02.22v.17l.21.26h.12s1.47-.18,1.47-.18l.29-.05.85-.1.57-.08,1.2-.1h.84l.97-.13h.25l.73-.09.53-.05.43-.05h.05v.02s.01.04.01.04v.02l-.11.02h0v.06l.04,1.64h0v.29l.04.81v.22s-.03.03-.03.03l-.04.02h-.45l-.51.02-.02.03v2.23l-.04.16-.05.11-.06.09-.06.06-.16.12-.13.06-.22.02-.08-.02-.02-.02v-.09l.03-.02.26-.06.09-.03.06-.04.12-.11.07-.13.04-.15v-.05l-.48-.02v.05l-.02.02h-.28s-.17.06-.17.06l-.16.1-.06.06-.19.27-.37.63v.04l-.05.11v.28s.01.21.01.21v.21l.03.07v.49l.02.14v1.06l.03.09v.05l-.04.02-.03.04h-.02v-.03s-.05-1.19-.05-1.19v-.03h-.02s-.01-.01-.01-.01l-.02.03v.14l-.02.03-.05.05v.05l.07.07v.06l-.02.03-.08.06h-.06l-.26-.13-.2-.07h-.07l-.43-.03h-.03l-.54.46v.24l.13.49.1.31h.01s.05.06.05.06v.03l.03.06.07.25.06.22.03.06.02.04.05.17.02.07.05.33v.05h0l-.04.05h0v.1l.02.04h0v.02l.02.02.06.04h.01l.02.04h0l.27.65.06.19.04.21.03.32.03.29.02.07v.13s.01.23.01.23v.08l-.05.06-.02.03v.2l-.06.08v.17l-.02.05-.04.17v.16s.17.26.17.26v.23s.01.04.01.04l-.11.19-.03.1v.09l.03.15v.05h0s-.04.01-.04.01l-.02.02h-.01v.03l.02.1.08.1.06.08v.04l.07.31.06.16.24.4.12.16.02.02.07.08.08.12v.02l.02.04v.06h-.01v.02h-.22l-.04.07v.43l.02.44v.32h-.02l-.1.08-.04.05-.03.05v.17l.02.06v.02l.04.07.07.09.06.11.06.11v.04l.03.06.03.21.04.52.08,1.37.03.27.04.21.03.09.03.09.07.2h0v.05l-.02.05-.04.03-.05.06v.03l-.02.06v.38l.03.09v.11l-.02.04-.03.08-.02.08v.11l.04.5v.53l.04.33.02.13v.31l.02.09.05.14v.25l.02.07.2.43.05.07h.15s.02.01.02.01l.03.05.03.07.02.18-.07.22-.08.28-.02.04-.03.02-.04.02-.18-.03h-.15s-.03.05-.03.05v.04l-.02.03v.54l.02.23v.16l-.02.1-.05.1-.22.35-.03.1v.3l.04.17v.26l-.02.08v.04h0l-.07.13-.06.08-.09.06-.08.04h-.25l-.11.02-.05.04-.03.03-.03.03-.04.08-.07.28-.03.33v.51l.05.25v.24l.04.14.05.2.13.52.05.42.07.24.09.41.09.27.15.79.36,1.66.07.21.13.22.03.11.02.16.03.14.08.14.07.18.02.08v.11l-.02.14v.02l-.02.13.02.11v.11l.02.03h0v.04s.01.05.01.05h0v.18l.03.06v.15l.02.07v.27l-.02.09h0l-.04.11-.02.1v.03l-.04.28v.11l.03.08v.15s-.04.23-.04.23l-.02.08.02.16v.07l-.03.04h-.03l-.02.05v.17h-.07v.21l.02.36v.04l-.11.08h-.01v.02l.02.11.08.12v.07h-.01l-.1.02h-.01l-.02.02v.16l.07.13v.07l-.02.05.07.11h0v.08l-.1.03-.03.03v.09s.08.22.08.22v.05l-.02.02h-.04l-.08.03h-.01l-.02.03v.1l.04.04.09.11v.06h-.07l-.07.03-.05.04h0l-.02.05v.12l.02.07h.01v.02l.03.02v.03l-.07.02-.05.02v.02h-.02v.07l.02.03.02.03v.03h-.04v.04s.01.14.01.14l.03.06.06.08h0v.05l-.16.08-.08.08-.03.08v.2l.05.14v.04l-.06.06v.31l.07.28v.17l.02.13.17.39v.05h-.03l-.06.03v.02h-.02v.11l.06.08v.2s.04.04.04.04l.02.03.03.03v.1h-.01l-.05.06v.09l.06.14v.04h-.04s-.02.03-.02.03v.05l.12.19.02.03v.03h-.01s-.05.03-.05.03h-.01v.08s-.01.03-.01.03l.04.04h.06s.05-.01.05-.01h.03s.01-.01.01-.01v.04l-.08.02h0l-.04.03v.12l.02.02h.05l.06-.02h.1v.06s-.15.04-.15.04h0l-.09.04-.04.06v.08s.05.31.05.31l.02.08v.04l-.05.08v.11l.02.14.09.33v.03l.05.11.12.22v.04l-.05.11-.02.08v.02l-.03.06.02.15h.01v.02s.05.02.05.02l.02.02.02.06-.03.24v.05l-.04.05-.1.21-.03.11-.06.08v.21l.06.07-.02.14v.05l.02.06.2.44.14.4.02.11v.09l.05.26.02.25v.22s-.03.05-.03.05l-.1.07-.06.09-.05.11v.09h.1s.03.03.03.03v.07h-.12l-.02.06v.11l.03.13.03.1.02.03h.05l.03.02v.03l-.06.05v.1l.06.13.02.07v.03h-.06v.07l.03.06.06.02v.03l-.05.03h0v.14l.02.05-.02.05h-.08l-.07.02-.03.03-.02.08v.03h.04s.02.04.02.04v.04l-.08.05-.1.02h-.02l-.04.08-.02.15v.13l.14.44.08.2v.19l-.09.18v.04l-.03.11v.13l.03.05.11.09.02.04v.16l-.03.1v.09l.12.49.03.03.1.03.03.02.04.14.03.3v.09l-.07.1v.05l.08.62.08.2.02.02h.07v.03h-.07l-.02.03v.22l.07.02v.03h-.08s-.03.03-.03.03l-.08.19v.12l.1.26.07.11.03.1.08.5v.12l-.03.14v.03l.11.21.03.06v.06l.02.16v.34l.13.58.11.42v.03l.05.22.02.16v.12l.14.81.02.09.02.06v.02l.02.14.03.07.02.18.06.25v.13l.02.15v.08l.04.24v.05l-.07.06v.08h0l.16.51.11.23v.17l-.02.04-.13.11h-.02l-.06.05-.05.05-.05.1v.14l.03.12.03.22.02.2.1.27.02.17.02.08v.15l-.07.08v.31l.03.27.07.21.03.12v.14l.09.32.08.24.03.13v.13l.06.24.08.31.08.22.16.54.18.57.06.24.05.18.05.26.04.21.07.21v.12l.11.26.02.08.04.09.07.12.11.2.1.14.08.08.03.07v.06l-.03.03-.09.04-.04.05h0v.06l.04.23v.07l-.03.06v.24s.08.19.08.19l.04.06.05.04.04.04.02.06.04.19.06.13.04.05.08.05.02.03.03.11v.12l-.02.08h0l-.03.08-.07.09v.12l.11.2.25.51.06.14.26.73.05.1.05.07.07.07.06.09.05.13.03.14v.22s-.04.05-.04.05h0l-.09.14v.17l.05.18.05.13.17.26.08.1.06.07.02.04.04.17.03.11.07.37.03.11.07.21.04.08.06.3.05.14.02.02.07.02.04.02.17.11.32.22.03.02.09.08.08.02h.08l.02.02h.03l.02.04v.04l.02.27v.06l.04.05.03.04.03.05v.08l-.02.02h-.05l-.04-.06-.03-.03h0l-.02-.12-.02-.03h-.07l-.02.03v.3l-.02.02h-.09v.04s-.01.04-.01.04l.02.13v.03l.04.02.06.02.02.02.05.24.1.18.04.03.06.02.05.04.1.13.03.03.05.09h.01l.08.1.03.06v.11s.01.03.01.03l-.19.06-.04.04-.02.06v.05l.14.42.03.05.03.03.08.03h.13l.18-.02h.04l.02.02.02.06h0v.27s-.03.04-.03.04v.02l-.05.04h-.18l-.36.04-.08.03-.05.07-.04.13-.02.16v.44l.04.43.03.1.15.33.1.14v.14h0l-.02.12h0v.1l.02.1.06.16.04.22.05.17.06.14.17.22.07.12.05.18.03.26.04.14.12.24.13.19.13.21.03.02h.04l.13-.04h.11l.11.03.04.02.06.03h.02l.03.02h.05l.09.05.1.1.08.03.03.03.02.04h0v.05l.03.3v.03l-.04.02-.3.06-.04.02-.02.02-.04.08v.12l.1.34.15.33.11.21.05.07.05.04.06.1.02.05v.14s-.04.05-.04.05l-.16.13-.03.05v.18s.14.3.14.3l.12.22.06.08.15.16.24.2.2.19.08.1.02.06v.22l.02.08.02.02.09.03h.2l.15.04h.14s.02.03.02.03l-.03.09-.02.03-.02.02h-.03l-.08-.1-.04-.02h-.07l-.71.03h-.87l-.02-.03v-1.08l-.02-.02h-.56v-.62l-.03-.02h-.06l-1.25.03h-.02v1.83l.06.05h-.35l-1.95.05-1.53.06-1.6.06-1.97.14h-.21l-.93.08-3.02.04h-.74l-1.26.03h-.48l-.91.02h-.91l-.9.02h-1.15s-.66.01-.66.01l-.91.02h-.9s-.84.01-.84.01l-2.64.03h-3.17l-.18.02h-1.48l-3.15.03h-2.82l-2.23.02h-12.89s-.38.01-.38.01h-1.19l-1.83.02h-5.35s-.47-.01-.47-.01h-1.5s-.11-.01-.11-.01l-.19-.02-.06.03h-.49l-2.35.04h-2.59l-.04-.02h-2.11l-1.55.03-.9.03h-2.09s-.03-.01-.03-.01l-5.7-.03-3.63.16-.47.02h-.05l-1.16-.33-.2-.13-9.62.25-8.43.16-4.65.09h-.3l-.67.02h-.47l-2.22.02-2.41.06-3.16.02h-2.6l-2.4.07-2.06.04-6.13.05-7.93.07-.68.02-8.87.17-.87.04-.49.02-5.65.08-3.9.05-.92-.07-2.62-.19-1.92-.14-.39-.05-.47.03-.18.05-.4.11-.6.21-.63.14-6.94.09h-1.61l-3.7.04-1.36.02-1.02.02h-.45l-.45.19-.06.02-1.1.03-8.19.1h-4.19s-.03-.01-.03-.01h-.85s-.92-.03-.92-.03h0l-5.55.13h-1.51l-.94.02h-2.09l-4.69.03h-1.38l-1.87-.04-2.2.04-3.31.03h-1.16l-4.12.02h-.37l-2.11-.02-2.44-.02h-.04l-6.07.13h-.12l-2.48.07h-.02l-8.69.2h-.35l-6.35.15-1.79.05-3.51.11-7,.22-9.49.3-3.5.09h-.39l-4.66.1h0l-7.5.2h-1.37l-3.88.43-.76.08-.15.02-3.7.41-2.68.3-.68-.02h-.32l-.03.02h-.07s-1.65.05-1.65.05l-2.05.04-1.41.03h-.09l-1.91.09-6.09.19-1.67.05-.99.03-.74.02-8.42.23-5.12.11h-.31l-.43.03-2.74.18-1.15.03h0l-3.28.09-1.18.03-.64.03h-.69l-1.35-.03h-3.26l-1.51.04h-.05l-.58.02h-.11l-2.76.09-.9.03h0l-10.07.33-1.06.03h-.17l-.51.03-.77.03h-.58l-1.46.04h0l-.02-1.5-.03-.91-.04-1.31v-.13l-.04-1.59-.13-4.73-.02-.91-.11-3.75-.21-7.26v-.03l-.2-6.86v-.66s0-.04,0-.04l-.02-3.21v-.07s.03-.18.03-.18l-.14-2.22-.07-1.04v-.56s0-.05,0-.05l-.02-.66-.06-2.37-.11-3.58v-.04l-.04-.5v-.02h-.04s-.02-.01-.02-.01l-.02-.02-.02-1.12h0l.17.09-.11-.78-.02-.14-.23-7.88-.02-1.16-.04-1.27-.06-2.02-.15-5.24v-.41s-.14-4.53-.14-4.53l-.13-4.55-.08-2.69-.31-11.25v-.73l-.07-1.89h0l-.18-6.08v-.32l-.02-.39-.07-2.2v-.05l-.02-.6-.03-1.09-.02-.59-.03-1.02v-.36l-.1-3.75-.08-3.34-.11-3.35-.14-4.27-.21-7.16-.05-.39-.06-3.28-.02-2.51v-.16l-.05-.04-.06-.02v-.66l-.04-6.73v-.7l-.03-.43v-.21l-.1-1.53-.08-4.18v-.29l-.08-2.33-.07-2.29v-.04l-.02-.42-.04-1.06-.17-5.9-.09-2.85-.17-5.54v-.94l.04-3.4.09-.79.04-.45.03-.27v-.75l-.02-.19-.02-.78v-.35l-.02-.33-.04-.17-.07-.16-.24-.33.13-.29.03-.07.09-.27.02-.06.05-.32.02-.18v-.04l.02-.54.02-.28.03-.29.03-.22.04-.1.13-.35-.17-.13-.09-.09-.04-.06-.03-.06-.05-.19-.02-.07v-.64l-.05-1.68-.1-2.71-.2-4.76-.02-.37v-1.46h0l-.04-.1h0v-.06s-.03-.07-.03-.07v-.67s-.39-5.85-.39-5.85h0v-.13s0-.1,0-.1h0v-.23l-.03-.17-.08-1.31v-.28s0-.21,0-.21v-.13s0-.11,0-.11v-.05l-.02-.58v-.39l-.02-.55v-.54l-.08-3.06-.11-4.14-.24-10.25h0v-.46l.04-.99v-.11l.03-.15v-.26l-.02-.1v-.08l-.02-.03-.03-.13v-.98l-.02-.44v-.14h0l-.1-.51-.04-.28-.03-.15-.08-.37-.08-.27v-.29l-.02-.18v-.26l-.03-.64v-.25l-.02-.41-.1-2.88-.04-.82-.04-.48-.04-.33-.05-.32-.03-.13.18-.06-.05-2.4-.08-4.48-.27-8.59-.28-8.66-.21-1.73-.29-4.36-.07-1.1v-6.01l-.03-.11.02-.25v-.76l-.02-2.29v-1.13l-.08-7.49-.03-4,.03-.1.03-.08-.03-.22-.04-.34-.03-.24.02-.26v-.1l-.05-5.76v-2.85l-.11-8.07h.04l-.04-.07-.02-2.13v-.75l-.08-7.6-.06-5.98-.02-1.62-.07-7.6-.08-7.46v-.28l.02-.19v-1.54l.02-7.31.02-1.22v-.92s0-.11,0-.11v-.98s0-.28,0-.28l-.03-1.13v-.12h-.15l-2.75-.03h-.81l-.21-.02h-1.85l-1.02-.02h-.44l-.07.02-.1.03h-.3l-.11.04h-7.45l-3.33.09-1.46-.13h-.09l-.37-.03h-3.2l-1.67-.02h-1.88l-.53-.02h-1.33v-.18l-.04.06-.07.03-.25.04h-.32l-.34.05-1.28.04-.74.02-.53.02-5.1.16-5.63.13h-.51l-7.37.17-4.83.09-2.49.07-7.65.16-5.98.13-1.65.04-1.27.02-1.56.03-.02.07-.02.05h-.29l-.38.06-.82.02-.18-.11h-.56l-.54.02h-2.85l-2.14.04-2.76.06h-.05l-1.29.02h-.34s-7.96.2-7.96.2l-3.24.08h-.44l-.18.02-.66.02h-.2l-.11-.02-1.38.02-2.89.04h-.07l-10.49.24-3.9.06-3.45.05-7.17.17-10.9.21h-.39l-1.91.03-2.35.02-8.84.08-11.2.09h-7.79v-1.12l-.04-.97-.14-4.58-.02-.57-.07-2.13-.2-5.42v-.27l.02-.13-.19-5.54-.09-2.59v-1.37l-.02-.83-.14-4.74-.18-6.09-.02-.16v-.18l.02-.71v-.31s-.03-.15-.03-.15l-.02-.19v-.23l.02-.16v-.37l-.04-.46-.03-.96v-1.14l.02-.32v-.02l.03-.26-.04-1.82-.16-.19-.41-.5.27-1.41.08-.45.13-.68-.03-1.17-.05-.24v-.08l-.02-.1v-.12s-.01-.05-.01-.05v-.67l-.02-.98-.08-4-.05-2.39v-.47l-.03-1.65-.05-3.41v-2.68h0l-.03-1.86v-.56l-.04-1.67-.05-2.78v-.12l-.04-2.26v-.99l-.08-4.8-.07-4.71v-1.9l-.02-1.82v-.23l-.1-5.04v-.7l-.02-.17v-.51l-.02-1.2-.02-1.71v-.22l-.06-3.64-.05-4.78-.02-3.26-.07-4.1-.06-3.39v-.6l.02-.1v-6.3l-.02-1.36-.14-7.03-.06-6.6-.05-2.24-.12-5.33-.08-3.86v-.08l-.07-9.83v-.92s-.01-.07-.01-.07l-.04-.3-.2-2.32-.11-.7-.04-.24v-.35l.04-3.11v-.02l.05-.63.02-1.28v-1.11s-.04-.41-.04-.41v-5.17l.02-.3.02-.21v-.65l.03-3.67.07-.16-.04-.07v-.11l-.02-.11v-.37l.03-6.92v-2.2l.02-2.54v-.73l-.13-6.91v-.88l.02-.42.15-3.37v-.04l-.08-14.22v-.64s-.01-.51-.01-.51l-.04-.58.02-.07v-.05l.02-.19-.03-3.83v-2.14s-.01-.19-.01-.19v-.52l-.02-5.05v-2.26l-.03-1.71v-.27s.03-.24.03-.24v-.02l-.08-4.38v-.15l-.08-6.82v-.99l-.02-.23v-.02l-.04-2.21-.03-3.72v-3.46l.02-.09v-5.21s.01-5.96.01-5.96v-6.28s-.01-.14-.01-.14v-5.62l-.02-.21v-1.08s-.04-1.08-.04-1.08v-.54l-.03-.69v-.13l.02-.08.08-.15.03-.05v-.04l.03-.06v-4.33l-.02-.43.02-2.4v-.57l.02-.26v-.14l.05-1.89-.02-1.43-.02-.14v-.2l.02-.1.02-.07.09-.11v-.12l-.07-.3.02-2.97v-2.54l.02-3.4v-.37l.07-9.18.02-2.32v-1.89s.01-.72.01-.72v-.15s.03-.33.03-.33l.09-2.8.26-8.22v-1.67l.25-8.98.11-3.87.15-5.17v-.03h1.2l5.25.06,7.34.02.08.63Z"/>
    </g>
    <g id="marker">
        <path id="southeast_66" class="cls-13" d="m569.83,443.07c0,4.86-6.33,10.81-8.81,18.94-2.44-8.17-8.81-14.07-8.81-18.94s3.95-8.81,8.81-8.81,8.81,3.95,8.81,8.81h0Z"/>
        <path id="southeast_71" class="cls-2" d="m296.1,642c0,4.86-6.33,10.81-8.81,18.94-2.44-8.17-8.81-14.07-8.81-18.94s3.95-8.81,8.81-8.81,8.81,3.95,8.81,8.81Z"/>
        <path id="southeast_72" class="cls-4" d="m527.16,575.03c0,4.86-6.33,10.81-8.81,18.94-2.44-8.17-8.81-14.07-8.81-18.94s3.95-8.81,8.81-8.81,8.81,3.95,8.81,8.81Z"/>
        <path id="southeast_74" class="cls-4" d="m543.6,583.56c0,4.86-6.33,10.81-8.81,18.94-2.44-8.17-8.81-14.07-8.81-18.94s3.95-8.81,8.81-8.81,8.81,3.95,8.81,8.81Z"/>
        <path id="southeast_73" class="cls-4" d="m550.41,599.61c0,4.86-6.33,10.81-8.81,18.94-2.44-8.17-8.81-14.07-8.81-18.94s3.95-8.81,8.81-8.81,8.81,3.95,8.81,8.81Z"/>
        <path id="southeast_75" class="cls-2" d="m545.03,445.24c0,4.86-6.33,10.81-8.81,18.94-2.44-8.17-8.81-14.07-8.81-18.94s3.95-8.81,8.81-8.81,8.81,3.95,8.81,8.81Z"/>
        <path id="southeast_24" class="cls-5" d="m465.99,166.92c0,3.89-5.06,8.65-7.05,15.15-1.96-6.53-7.05-11.26-7.05-15.15s3.16-7.05,7.05-7.05,7.05,3.16,7.05,7.05Z"/>
        <path id="southeast_29" class="cls-9" d="m396.73,61.23c0,3.89-5.06,8.65-7.05,15.15-1.96-6.53-7.05-11.26-7.05-15.15s3.16-7.05,7.05-7.05,7.05,3.16,7.05,7.05Z"/>
        <path id="southeast_31" class="cls-10" d="m467.9,218.42c0,3.89-5.06,8.65-7.05,15.15-1.96-6.53-7.05-11.26-7.05-15.15s3.16-7.05,7.05-7.05,7.05,3.16,7.05,7.05Z"/>
        <path id="southeast_61" class="cls-3" d="m465.32,125.83c0,3.89-5.06,8.65-7.05,15.15-1.96-6.53-7.05-11.26-7.05-15.15s3.16-7.05,7.05-7.05,7.05,3.16,7.05,7.05Z"/>
        <path id="southeast_62" class="cls-13" d="m439.64,73.09c0,3.89-5.06,8.65-7.05,15.15-1.96-6.53-7.05-11.26-7.05-15.15s3.16-7.05,7.05-7.05,7.05,3.16,7.05,7.05Z"/>
        <path id="southeast_63" class="cls-3" d="m475.95,89.15c0,3.89-5.06,8.65-7.05,15.15-1.96-6.53-7.05-11.26-7.05-15.15s3.16-7.05,7.05-7.05,7.05,3.16,7.05,7.05Z"/>
        <path id="southeast_64" class="cls-3" d="m465.53,89.79c0,3.89-5.06,8.65-7.05,15.15-1.96-6.53-7.05-11.26-7.05-15.15s3.16-7.05,7.05-7.05,7.05,3.16,7.05,7.05Z"/>
        <path id="southeast_65" class="cls-3" d="m468.9,106.71c0,3.89-5.06,8.65-7.05,15.15-1.96-6.53-7.05-11.26-7.05-15.15s3.16-7.05,7.05-7.05,7.05,3.16,7.05,7.05Z"/>
        <path id="southeast_76" class="cls-11" d="m469.07,113.99c0,3.89-5.06,8.65-7.05,15.15-1.96-6.53-7.05-11.26-7.05-15.15s3.16-7.05,7.05-7.05,7.05,3.16,7.05,7.05Z"/>
        <path id="southeast_77" class="cls-8" d="m439.64,115.87c0,3.89-5.06,8.65-7.05,15.15-1.96-6.53-7.05-11.26-7.05-15.15s3.16-7.05,7.05-7.05,7.05,3.16,7.05,7.05Z"/>
        <path id="southeast_78" class="cls-11" d="m458.47,128.58c0,3.89-5.06,8.65-7.05,15.15-1.96-6.53-7.05-11.26-7.05-15.15s3.16-7.05,7.05-7.05,7.05,3.16,7.05,7.05Z"/>
        <path id="southeast_92" class="cls-12" d="m456.55,156.1c0,3.89-5.06,8.65-7.05,15.15-1.96-6.53-7.05-11.26-7.05-15.15s3.16-7.05,7.05-7.05,7.05,3.16,7.05,7.05Z"/>
        <path id="southeast_90" class="cls-12" d="m449.61,218.42c0,3.89-5.06,8.65-7.05,15.15-1.96-6.53-7.05-11.26-7.05-15.15s3.16-7.05,7.05-7.05,7.05,3.16,7.05,7.05Z"/>
        <path id="southeast_91" class="cls-12" d="m456.55,187.63c0,3.89-5.06,8.65-7.05,15.15-1.96-6.53-7.05-11.26-7.05-15.15s3.16-7.05,7.05-7.05,7.05,3.16,7.05,7.05Z"/>
        <path id="southeast_89" class="cls-1" d="m236.14,171.07c0,3.89-5.06,8.65-7.05,15.15-1.96-6.53-7.05-11.26-7.05-15.15s3.16-7.05,7.05-7.05,7.05,3.16,7.05,7.05Z"/>
        <path id="southeast_88" class="cls-12" d="m451.42,146.46c0,3.89-5.06,8.65-7.05,15.15-1.96-6.53-7.05-11.26-7.05-15.15s3.16-7.05,7.05-7.05,7.05,3.16,7.05,7.05Z"/>
        <path id="southeast_87" class="cls-12" d="m467.9,157.56c0,3.89-5.06,8.65-7.05,15.15-1.96-6.53-7.05-11.26-7.05-15.15s3.16-7.05,7.05-7.05,7.05,3.16,7.05,7.05Z"/>
        <path id="southeast_30" class="cls-7" d="m475.95,101.85c0,3.89-5.06,8.65-7.05,15.15-1.96-6.53-7.05-11.26-7.05-15.15s3.16-7.05,7.05-7.05,7.05,3.16,7.05,7.05Z"/>
    </g>
</svg>