<?xml version="1.0" encoding="UTF-8"?>
<svg id="ikr_svg"
    xmlns="http://www.w3.org/2000/svg" viewBox="0 0 151.53 152.27">
    <defs>
        <style>.cls-1{fill:#1a3f4b;stroke:#010101;stroke-linecap:round;stroke-linejoin:round;stroke-width:2px;}.cls-1,.cls-2,.cls-3,.cls-4,.cls-5{fill-rule:evenodd;}.cls-2,.cls-5{fill:#a352a0;}.cls-3{fill:#a23c50;}.cls-4{fill:#a12b25;}.cls-5{stroke:#231f20;stroke-miterlimit:10;stroke-width:.5px;}</style>
    </defs>
    <path class="cls-1" d="m67.95,138.01h-.03v-.04h0v-.03h0s.04-.01.04-.01h.02v.02h0v.04h0s-.03.02-.03.02Z"/>
    <path class="cls-1" d="m145.66,111.61l.03.02-.25-.03h.22Z"/>
    <path class="cls-1" d="m49.85,136.88h0v-.02h-.02s-.01-.01-.01-.01h0l.02.02h.01s-.02.01-.02.01h-2.18s0,0,0,0h-1.29l-.11.02h-3.42s-.13.01-.13.01h-.62l.15.19h0l.03.07.11.22.04.09.05.11.05.13.03.07v.06l.03.08v.03h0v.16l-.03.15-.05.14-.05.13-.06.15-.07.15h0l-.07.11-.06.1h0l-.04.07h0l-.09.15h0l-.09.15h-.01l-.03.04-.06.03-.11.06-.08.05h-.01v.02l-.04.06-.03.08-.11.21-.09.15-.09.11-.04.05h0l-.06.05h0l-.11.09-.2.12-.24.08-.19.07-.16.15-.06.08-.07.14-.03.06-.04.06h0l-.03.05-.02.03h-.02l-.04.04h-.03l-.07.04h-.24l-.02-.03-.02-.02-.02-.03h0l-.02-.02h-.02l-.02-.02h-.05s-.02-.01-.02-.01h-.04l-.02-.02h-.09v.02s-.03.02-.03.02l-.02.02h-.02l-.03.02h-.03l-.03.02-.02.02v.02l-.02.03v.02l-.02.02-.02.02v.02l-.02.03h0v.05l-.02.02v.02l-.02.02-.02.02-.02.03-.02.03v.06h-.01s-.02.01-.02.01l-.02.02h0l-.03.02h-.03l-.02.03h-.02v.02h-.02v.02h-.03v.02h-.02s-.02.01-.02.01v.02h-.01s-.03.03-.03.03l-.02.02h0l-.04.06-.05.05-.06.04h-.04l-.21.04-.2.03-.13.02-.21.03h-.04s-.15.01-.15.01l-.21-.02h-.12s-.12-.04-.12-.04h-.23s-.07-.01-.07-.01h-.33l-.19.04-.1.03h0l-.06.02-.06.05-.04.03h0l-.09.1-.04.06-.04.06-.03.05-.02.04v.03l-.06.18-.04.12-.02.05-.05.15-.06.14-.03.05-.07.06-.19.19-.14.18-.18.24-.05.1-.05.08-.03.03-.03.03h-.02l-.11.13-.09.11-.07.05-.02.07-.18.32.02-.14h0l-.2.35-.13.15-.04.04h0l-.04.04-.03.04-.06.07-.04.06h0l-.03.06-.03.04-.04.04h0l-.03.02-.38.23-.24.14h-.05l-.07.03h-.03l-.03.02h-.02l-.02.03-.04.03h-.02v.02l-.05.04h0l-.06.04-.06.02h-.06l-.11.04h-.14l-.14-.02h-.16s-.13-.03-.13-.03h-.29l-.11-.02h-.05l-.02-.02h-.07l-.26.06-.16.06-.13.07h0l-.1.07-.09.06-.03.02-.21.12h-.02l-.24.11h0l-.04.02-.28.09-.13.04-.15.05-.06.02h-.04s-.04.01-.04.01h-.27l-.27-.03-.14-.03-.13-.02h-.24l-.18-.02h-.05l-.07-.02-.18-.06-.19-.07h-.01l-.06-.02h-.54l-.12-.02h-.06l-.08-.02h-.05s-.19-.06-.19-.06l-.16-.05-.16-.04h-.2l-.1.04-.15.05-.08.02h-.13l-.08.02h-.26l-.13-.02h-.02l-.2-.02h-.06l-.36-.1h-.05l-.08-.02h-.07v-.02l-.08-.03-.11-.05-.15-.06h-.61s-.14.01-.14.01l-.07.02h-.04l-.15.03-.11.03-.08.02h-.02l-.09.04-.24.12-.19.12-.29.19-.06.04h0l-.06.04-.31.22-.08.06h0l-.24.12-.14.09-.03.03-.06.06-.05.05-.06.09h0l-.05.14-.04.1-.05.13-.12.17h0l-.15.16h0l-.12.12-.04.03-.34.2h-.02l-.12.09h-.01l-.07.06h0l-.06.03-.06.03-.04.02-.03.02-.03.02h0s-.03.03-.03.03l-.05.02-.04.02h0l-.04.05h0l-.02.05v.09h-.01v.03l.02.07v.08h.01l.03.12v.21l-.03.07-.04.09-.05.1-.02.03-.06.09-.06.12v.06l-.02.03v.12l.04.15.02.04v.08h0v.02h0l-.02.02h0v.05s-.01.02-.01.02v.07l-.02.02v.02l-.03.03v.02h-.01l-.07.04-.13.05-.12.03-.05.02h-.15s-.1-.06-.1-.06l-.13-.14-.03-.03h0l-.17-.21-.2-.19-.16-.09-.17-.12-.08-.08-.19-.28-.04-.05-.05-.06-.06-.08h0l-.15-.14-.13-.06-.14-.04-.12-.02h-.08l-.06.02h-.04l-.05.02-.06.02-.15.05-.13.05-.13.04h-.32l-.14-.02-.1-.02h-.37l-.1.02h-.07s-.02.01-.02.01h0l-.03-.02-.07-.02-.11-.03h-.12l-.15-.03-.15-.04-.17-.11-.12-.06-.09-.04-.07-.02h-.03l-.14-.05-.11-.05-.08-.03-.07-.02h-.14l-.12-.03h-.37s-.03-.01-.03-.01h-.17l-.1-.02-.09-.02h-.08l-.14-.02h-.47s-.09.03-.09.03l-.11.04h-.03l-.07.05-.03.02h-.02s-.02.03-.02.03l-.03.02-.09.07h0l-.07.05-.06.05-.09.06-.16.11-.05.05-.02.02-.11.08-.08.06-.08.06-.1.06-.09.03-.12.03h-.12s-.07-.03-.07-.03l-.06-.07-.04-.07-.03-.08-.03-.07-.05-.12-.06-.04-.07-.04-.08-.05-.09-.05h0l-.08-.03-.08-.04h0l.02-.03.02-.04v-.02l.02-.02h0v-.05h0v-.05h0v-.02h0v-.59h0v-.35h0v-.36h0v-.03h0v-.02h0v-.02h0l-.02-.04v-.06h0v-.02h0v-.15h0v-.99h0v-.86h0v-.63h0v-1.14h0v-.02h0l.02-.24v-.66s0-.42,0-.42v-1.3h0l.04-.11h0v-.15l-.03-.99v-.92l.02-.81v-.17h0v-.41l.02-.25v-.49h0v-.4h0v-.88h0v-.03h0v-.03h0v-.88l-.02-.92v-.42h0v-.08h0l.03-1.14.02-.71v-.41h0v-.02h0v-.07h0v-.03h0v-.1h0v-.02h0v-.08h0v-.75l-.02-.77h0v-.54h0v-.61h0s.02-.54.02-.54v-.85h0v-3.08h0v-2.32h0v-1.01h0v-1.16h0v-.15h0v-.02h0v-.02h0v-.02h0l-.02-.32v-2.03h0v-.48h0v-1.11h0v-.14h0v-.29h0v-.02h0v-.53h0v-.02h0v-.05h0v-.11h0v-.03h0v-1.6h0v-.19h0v-.14h-2.89s-.19-.01-.19-.01h-.3l-.59.02h-.07l-.06-.02H1.06v-1.52h0v-.32h0v-1.01h0v-.56h0v-.42h0v-.75h0v-.03h0v-.91s0-.03,0-.03v-.47s0-.25,0-.25h0v-1.13h0v-.95h0l-.02-.49v-.15h0v-.02h0v-.6h0v-.02h0v-.06h0v-.03h0v-.21l-.02-.07h0v-1.38h0v-.34h0v-5.32h0v-.53h0v-1.06h0l-.02-.06h0v-.17h0v-.08h0l.02-.53v-.86s0-.21,0-.21v-4.19s0-.3,0-.3l.02-.39h0v-.05h0v-2.09h0v-2.4s0-.08,0-.08v-.29h0v-.15h0v-.19h0v-.04h0v-.12h0v-1.88h0v-.89h0v-.07h0v-.05h0v-2.43h0v-.02h0v-.33s0-.25,0-.25v-.03h0v-.46h0v-.11h0v-.19h0v-1.28l-.02-.39v-.43l.02-.4v-.16h0v-.82h0v-2.01h0v-.02h0v-.06h0v-.02l.02-.21.02-.45v-1.13l.02-.24v-2.51l.02-1.06v-.33l.02-.21h0v-.92h0v-6.03h0v-1.31l-.03-.26v-.15s0-.05,0-.05v-.03s0-.04,0-.04v-2.56l.03-.27v-.54l-.02-.15v-4.7l.04-.53h1.29s.03.01.03.01h0l1.33-.06,1.15.09h.48l.83-.05h3.85s0-.01,0-.01h9.18s.23.01.23.01h4.54s.19-.01.19-.01h2.13l.03-.02h1.73l.35-.02h3.17s.09-.01.09-.01h2s.49.01.49.01h1.05s.07.01.07.01h1.32l.7.02h.49l.21.02h1.18l.18.02h.52s.2.01.2.01h.49s.2.01.2.01h.43s.09.01.09.01v-.06l.04.02h.03l.03.03h.03s.02.01.02.01h.03v-4.3s-.01-.53-.01-.53h0v-1.4h0v-2.34h0v-4.47l-.02-.29v-.52l-.02-.27-.02-.95v-.87s-.01-.19-.01-.19v-.55s-.01-.21-.01-.21h0s-.02-1.37-.02-1.37v-.35s-.01-.07-.01-.07h0v-.19h0v-.63h-.01v-.06h0v-1.51l-.02-1.4v-1.21l-.02-.18v-.4h0v-.77h0v-.24h-1.17s-.01-.01-.01-.01h-6.91v-4.18h0v-1.08h-.01v-.83s-.01-.16-.01-.16v-2.12h0v-1.37h0v-2.22h0v-2.33h0v-2.2s.01-.2.01-.2h11.98s.9-.01.9-.01h.04s.03-.01.03-.01h1.39l.61-.02h2.34l.58-.02h2.99s.22-.01.22-.01h.5s.16-.01.16-.01h2.98s.78.04.78.04l.47.02.14.03.12.02h.05v-.02h.01s.03-.01.03-.01h.41s.46.03.46.03h.39s.63.03.63.03h.99s.17.01.17.01h.04s.13.01.13.01h.89l.18.02h.28l.77.02h.43l1.3.08h0l.69.05h2.59s.02.01.02.01h.78s.83-.01.83-.01h2.3s.41,0,.41,0h.62l.37-.02h.27l.06-.02h.08v.86l.02.56v.28h0v.29h0v.33h0v.31h0v1.07l.02.66h0v4.22h0v.05h0l.02.82h0v.06l.03,1.29v.79s.01.15.01.15l-.02.09v.82s-.01.02-.01.02v.05h0v.24l.02.51v.23h0v.15l.02.64v.11h0v2.16s.01.3.01.3h0v1.65h0v.26h0v.13h0v.17h0v.1s-.01.04-.01.04v.34s.03.33.03.33h0v1.77h0v2.98h0v.51s.01.02.01.02h0v1.23h0v.03h0v1.4h0v.72h0v.42h0v1.03s0,1.17,0,1.17v.78h0s-.01.4-.01.4h0v1.11h0v8.4h4.92s.71.01.71.01h.02s.17-.01.17-.01h1.81l.74-.02h1.16s.73-.01.73-.01h1.52l.08-.02h8.69l1.2-.02h.18l.38-.02h1.03s0,0,0,0v.11l.02,1.27.02.7v.85h0v.48l.02.76v.54l.02.5v.45l.02.53v1.62s.01.02.01.02v.49h.01l.02.74.02.74.02.74.02.74v.86l.02.14v.28h0v.48h0v1.56h0v.03h0v.1h0v.02h0v.05h0v.86h.01v.49h0v.49h0v.11h0v.12h0v.34h0l.02.87h-.02l.02.1v.48h0v1.24l.02.1v1.74s.03,1.05.03,1.05v.38h0v.02h.02-.02v.36l.02.97v.34h0l.03,1.41v1.05h.01v.53s.01.02.01.02v.12h0v.21h0v.91l.02,1.1v1.36h0v.34h.01v1.16l.02.25h.74l.52-.02h2.27l.88-.02h2.51s.07-.01.07-.01h2.71s.17-.01.17-.01h2.44s.72-.01.72-.01h.92s.69-.01.69-.01l.42-.02h1.02s.29-.01.29-.01h1.12s.15-.01.15-.01h.51l.7-.02h6.12s.11-.01.11-.01h.81l.13-.02h0l.09.02h6.25s1.1-.01,1.1-.01h.02l-.03-1.19-.03-1.19v-.52l-.04-1.39v-.07h0s.98-.01.98-.01l.98-.02h1.04l1.04-.02h2.14s.22-.01.22-.01l.55-.02h.04l1.15-.03h1.9l.55-.02h.04l.9-.02h.39s.67-.03.67-.03h.63l.72-.03h1.02l.5-.02h.66s.66-.01.66-.01h0s.01-.01.01-.01v.09h0v1.17l.02.39v2.78h0v.06l.03.77v.2l.02.57.03.73v.16l.02.32v.04l.02.59v.36l.03.39v.33l.02.36.02.7h0l.03.87v1.24l.02.29v.41s.03.69.03.69v.35h.01v.35l.04.69v.4l.02.31v.35l.04.73v.4l.02.58v.39l.02.16.03.55h0v.02h-.02v.23s.01.08.01.08v1.22s.01.13.01.13v.04l.02.7h0v.33h0v.49s.01.43.01.43v1.13l.02.25v.32s.01.09.01.09v.43h0v.44l.02.22v.25l.02.49v.88l.02.18v.53h0v.12h0v.04h0v.07h0v.06l.02.34v.19h0v.18l.03.68v.75h0v.05s-.01.05-.01.05v.06s.03.58.03.58v.37s.01.03.01.03v.95l.02.21h0v.13h0v.76s.01.47.01.47v.07h0v.19h0v.03h0v.05h.01v.37h0v1.22h0v.45h0v1.45h0v.36h-.82l-.41.02h-.12s-.56-.01-.56-.01h-.22s-.05.01-.05.01h-2.32s-.23.01-.23.01h-.46s-.03.01-.03.01h-.8l-.91.03h-4.15s-.79.01-.79.01l-.61.02h-.73s-.66.01-.66.01h0s-.66.01-.66.01h0s-.01.01-.01.01h-1.36s-.07.01-.07.01l-.58.02v.34h0v.28h0v.17h0v.51l.02.59h0l.02.89h0v.57l.05.58v.21l-.02.29h.02v.03h0v.11h0v.22h0v.7s.01.03.01.03v.66h.01l.02,1.08v.32l.02.71h0v.64s.01.6.01.6h0v.13l.02.7v1.2s.01.03.01.03v.99l.02.83v.1h0v1.75s.01.69.01.69v.64h0v.02h0l-.98.03h-.11l-.13.02h0v.87s.01.41.01.41v.93s.01.14.01.14v.06h0v.13h0v.52h0v.17h0l-.02.05.02.18h0v.81h0v.56h0l.02.83v.7l.02.67v1.44h0v.65h0v.03h0l.02,1.05v.17l.04.8v.35l.02.46h0v.03h0v.03h0v.77l.04.7v.59s.01.1.01.1v.88s.01.18.01.18v.18s.01.48.01.48l.02.16v.37s.01.14.01.14v.26h-.41l-.29-.02h-3.87s-.09.01-.09.01h-.42l-.51.02-.51.02h-6.23l-.46-.02-.03.02h-1.76s-.09.01-.09.01h-1.73l-.02-.02h-.02l-.02-.02h-.02v-.03h-.01l-.07.07h-.06l-.65.02h-.59s-.04.01-.04.01h-2.02s-.06-.01-.06-.01h-2.24l-.13.02h-.33v.02h-5.58l-.71.02h-2.1l-.75.03h-.42s-.08.01-.08.01l-.72.03h-.03v-.02h-.7l-.4.02-1.18.02h-.61s-.03-.01-.03-.01h-1.67s-.36-.01-.36-.01h-.47s-.07.01-.07.01h-.06l-.13.02h-2.6v-.05h0v-1.34h0v-1.22s-.01-.13-.01-.13v-1h0v-1.27l-.02-.24v-.34l-.02-.58v-1.65h-.01v-.56h-.17l-.84.07-.39.03-.3.02h-.05l-.35.02h-.04l-.6.03h-.06l-.73.03h-.59s-.07.01-.07.01h-.28s-.07.01-.07.01l-.52.02h-.3s-.02.01-.02.01h-.71l-.6.04h-.33s-.16.01-.16.01h-6.08s-.15.01-.15.01h-.36l-.02-.02-.02-.02h-.02l-.03.03h-.02l-.04.03h-.21l-.88.02h-.49s-.33.03-.33.03h-.7l-.28.02h-.31s-.06.01-.06.01h-.12l-.94.04-1.04.03-1.39.06h-4.07v-1.24h-8.28s-.11.01-.11.01h-.96s-.1.01-.1.01h-1.56s-.05.01-.05.01h-.09l-1.22.03h-1.86s-1.06.03-1.06.03h-1.37s-.48.01-.48.01h-.03l-.05.19Z"/>
    <path class="cls-1" d="m49.85,136.88h-.01s-.02-.03-.02-.03h.03v.03h0Z"/>
    <path id="central_36" class="cls-5" d="m110.72,103.22c0,3.24-4.22,7.21-5.88,12.62-1.63-5.44-5.88-9.38-5.88-12.62s2.63-5.88,5.88-5.88,5.88,2.63,5.88,5.88Z"/>
    <path id="central_37" class="cls-2" d="m40.69,58.81c0,3.24-4.22,7.21-5.88,12.62-1.63-5.44-5.88-9.38-5.88-12.62s2.63-5.88,5.88-5.88,5.88,2.63,5.88,5.88Z"/>
    <path id="central_38" class="cls-5" d="m110.27,108.16c0,3.24-4.22,7.21-5.88,12.62-1.63-5.44-5.88-9.38-5.88-12.62s2.63-5.88,5.88-5.88,5.88,2.63,5.88,5.88Z"/>
    <path id="central_39" class="cls-2" d="m24.08,75.45c0,3.24-4.22,7.21-5.88,12.62-1.63-5.44-5.88-9.38-5.88-12.62s2.63-5.88,5.88-5.88,5.88,2.63,5.88,5.88Z"/>
    <path id="central_40" class="cls-2" d="m58.31,5.88c0,3.24-4.22,7.21-5.88,12.62-1.63-5.44-5.88-9.38-5.88-12.62s2.63-5.88,5.88-5.88,5.88,2.63,5.88,5.88Z"/>
    <path id="central_41" class="cls-2" d="m78.31,49.65c0,3.24-4.22,7.21-5.88,12.62-1.63-5.44-5.88-9.38-5.88-12.62s2.63-5.88,5.88-5.88,5.88,2.63,5.88,5.88Z"/>
    <path id="central_79" class="cls-3" d="m119.76,132.47c0,3.24-4.22,7.21-5.88,12.62-1.63-5.44-5.88-9.38-5.88-12.62s2.63-5.88,5.88-5.88,5.88,2.63,5.88,5.88Z"/>
    <path id="central_85" class="cls-4" d="m28.57,99.72c0,3.24-4.22,7.21-5.88,12.62-1.63-5.44-5.88-9.38-5.88-12.62s2.63-5.88,5.88-5.88,5.88,2.63,5.88,5.88Z"/>
</svg>