<?xml version="1.0" encoding="UTF-8"?><svg id="Layer_1" xmlns="http://www.w3.org/2000/svg" viewBox="0 0 341.7 196.5"><defs><style>.cls-1{fill:#00aeef;}.cls-1,.cls-2,.cls-3,.cls-4{fill-rule:evenodd;stroke:#010101;}.cls-1,.cls-2,.cls-4{stroke-miterlimit:10;stroke-width:.5px;}.cls-2{fill:#ef4136;}.cls-3{fill:#1a3f4b;stroke-linecap:round;stroke-linejoin:round;stroke-width:2px;}.cls-4{fill:#00a14b;}</style></defs><path class="cls-3" d="m131.6,23.1h10.8l2.8-.1h25.1v2.7h9.1l3.1-.1,2.3-.1,2.1-.1h30.5l1.6-.1h.1l1.4-.1h1.7l.9-.1,1.9-.1h.4v.4-.4.5h0v9.1h0v5h0v1h0v2h0v.4h18.5l1.6-.1h1.2l1.7-.1h32.1l.2-.2h18.2v4.1h0l-.1,1.8v.7h0v4h0v1h0v.7h0v1.9h0v.7h0v1.5h0v2.6h0v1.1h0v.7h0v1.3h0v1.8h0v.9h0v.1h0v2h0v.1h0v1.3h0v.3h0v3h0v5.3h0v.9h0v1.6h0v.6h0v.8h0v.8h0v2.3h0v6.9h0v4.2h0v.8h0v1.3h0v3.5h0v1.5h0v.5h0v2.8h0v.5l-.1.3.1.1h0v.5h0v.1h0v.5h0v.1h0v.2h0v4.6h0v3h0v.2h36.8v.5h0v2.4h0v7.2h0v3.5h0v.1h0v.1h0v3.2h0v1.2h0v.2l.1.9v.4l.1,1.9.1,1.8v1.5h0v1.2h0v.2h0v.3h0v.2h0v.3h0v.3h0v4.2h0v.3h0l.1,1.3v.2h0v2.4h0v.1h0v.1h0v.3h0v.1h0v.1h0v.2h0v.4h0v.1h0v4.8h0v2.3h0v1.8h0v.1h0v6.6h0v2h0v.4h0v.1l.1,2.4v2.6h0v2l.1,1.7h0v.2h0v.2h0v.1h0v1.4h0v.1h0v.7h0v.7h0v1.7h0v3.9h0v.8h-3.9,3.7-20.7l-1.2.1h-23.6l-2.7.1h-5.3l-1.1.1h-.4l-1.2.1h-4.7l-1,.1h-4.2.1-.1l-1.7.1h-137l-3-.1h-61.7l-1.3-.1h-1l-2.9-.1H10h0H1v-3.9h0v-1.5,1.2-1.4h0v-9.5h0v-.3h0v-3.8h0v-.7h0v-.2h0v-.7h0v-.1h0v-.1h0v-.6h0v-5.5h0v-.8h0l.1-2.1v-.3h0v-6h0v-2.6h0v-.1h0v-1.9h0v-4.1h0v-.1h0v-3.5h0v-.2h0v-1.5h0v-1.3h0v-.4h0v-.1h0v-1.5h0v-1.6h0v-.8h0v-6.2l-.1-.2.1-.1h0v-2.2h0v-.8h0v-7.3h0v-4.6h0v-3.6h0v-1h0v-3.2h0v-8h0v-3.9h0v-.5h0v-.4h0v-.2h0v-.3h0v-.5h0v-.6h0v-.8h0v-3.4h0v-2h0v-.1h0v-1h0v-3.6h0v-1.4h0v-.1h0v-4.8h0v-3h0v-.7h0v-8h0v-2.3h0v-11h0v-2.4h0v-.5h0v-.2h0v-.2h0v-.3h0v-.3h0v-1.2h0v-.8h0v-.2h0v-.9h.6l.3-.1.4-.1h.8l.3.1.4.1h.2l.2.1h.2l.3-.1.3-.1h.3l.4-.1.2-.1.2-.1.2-.1.2-.1h1.2l.3-.1h.2l.3-.1.3-.1.4-.1h.4l.3-.1.4-.1.4-.1h1.1l.3-.1h.7l.2-.1.2-.1h.4l.8.1h1.9l.3.1h.1l.3.1.5.2.4.1h1.6l.2.1h.6l.2-.1h.1l.2-.1h1l.2.1h0l.2.1.4.2.2.2.2.2.2.3.1.2.1.1.2.3.1.4.1.1.1.5.1.1.1.1.2.1.2.1h.4l.2-.1.2-.1h.1l.2-.1.2-.1h.1l.2-.1h.1l.2-.1h1l.4-.1h.2l.1.1h.1l.1.1.1.1.3.2.2.1.2.3.2.2.2.1h.1l.1.1.3.1.2.1.2.1.2.1h.2l.1.1.1.1.1.1.1.1.1.1.1.1.1.1.4-.1.2.2.1.1.2.2h0l.1.1.1.1h0l.1.1.1.1.1.1h0l.1.1.1.1.1.1.1.1.2.1.1.1.2.1.2.1.2.1.2.1.1.1.2.1.1.1h.4l.2.1.1.1.1.1.2.1.2.1.1.1.2.1.2.1.2.1.2.1h.1l.2.1.2.1.2.1.2.1.2.1.2.1h0l.2.1.2.1h0l.2.1.2.1.1.1.1.1.1.3.1.2.1.2.1.2.1.2.2.1h.2l.3-.1.2-.1.2-.1.2-.1.2-.1.2-.2h0l.1-.1.4-.2.2-.1.1-.1.2-.1h0l.2-.2h.2l.1-.1.2-.1h.1l.2-.1h4.2l.2.1.2.1.3.1h.3l.2.1.3.1.4.2.4.1h.6l.2.1h2.5l.3-.1.3-.1.4-.1h.9l.3.1.3.1.3.3h0l.1.2.1.1.1.1.4.6.2.2.4.3.4.2.4.4.4.5h0l.1.1.3.3.2.1h.4l.3-.1.3-.1.1-.1h0v-.1h0v-.1.4h0v-.1h0v-.1l-.1-.3v-.8l.1-.3.1-.2v-.1l.1-.2.1-.2.1-.2v-.5l-.1-.3h0v-.5h0v-.2l.1-.1h0l.1-.1h0l.1-.1h.5l.1-.1.1-.1h0l.2-.1h0l.3-.2h.1l.8-.4.1-.1.3-.2h0l.3-.4h0l.3-.4.1-.3.1-.2.1-.3h0l.1-.2.1-.1.1-.1.1-.1.3-.2.5-.3h0l.2-.1.7-.5.1-.1h0l.1-.1.6-.4.4-.3.6-.3.2-.1h.2l.2-.1.3-.1h1.9l.3.1.2.1.2.1h.5l.8.2h2l.3-.1h.6l.4.1.4.1.4.1h2l.4.2.4.1h1.2l.3.1.3.1.6.1h.9l.3-.1.3-.1.6-.2h.1l.5-.2h0l.5-.3h.1l.2-.1.2-.1h0l.3-.2.4-.1.6-.1h2.4l.2-.1h.1l.1-.1.1-.1h0l.1-.1h0l.1-.1h.7l.6-.3.9-.5h.1l.1-.1.1-.1.1-.1h0l.1-.1.1-.1.1-.1.1-.1h0l.1-.1.3-.4.5-.8h0v.3l.4-.7.1-.2.2-.1.2-.2.2-.3h.1l.1-.1.1-.1.1-.2.1-.2.4-.5.3-.4.4-.4.1-.1.1-.1.1-.3.1-.4v-.1l.1-.3.1-.4v-.1l.1-.1.1-.1.1-.1.1-.1.2-.2h0l.1-.1.1-.1h.1l.2-.1.4-.1h1.3l.3.1h1.2l.5-.1h.3l.5-.1.5-.1h.1l.1-.1.1-.1.1-.1h.7v-.1l.1-.1h0v-.1h0l.1-.1h0v-.1h1.1l.1.1h1l.1-.1h.1l.1-.1.1-.1h0l.1-.1.1-.1.2-.3.1-.2.4-.3.4-.2.5-.2.4-.3.2-.2h0l.1-.1h0l.1-.1.2-.2.2-.3.2-.5.1-.2.1-.1h0l.2-.1.2-.1.1-.1.1-.1h0l.2-.3h0l.2-.3h0l.1-.1h0l.2-.2.2-.2h0l.2-.3.1-.3.1-.3.1-.3v-.7h0v-.4l-.1-.2-.1-.3-.1-.2-.1-.2-.2-.5-.1-.1h0l-.3-.4h17.1l2.5-2Zm40.6,2.6h0l.1-.1h-.2l.1.1h0Z"/><path id="southern_1" class="cls-4" d="m62.2,67.2c0,7.3-9.5,16.2-13.2,28.4-3.7-12.2-13.2-21.1-13.2-28.4s5.9-13.2,13.2-13.2,13.2,5.9,13.2,13.2Z"/><path id="southern_2" class="cls-4" d="m204,18.9c0,7.3-9.5,16.2-13.2,28.4-3.7-12.2-13.2-21.1-13.2-28.4s5.9-13.2,13.2-13.2,13.2,5.9,13.2,13.2Z"/><path id="southern_3" class="cls-4" d="m174.4,43.5c0,7.3-9.5,16.2-13.2,28.4-3.7-12.2-13.2-21.1-13.2-28.4s5.9-13.2,13.2-13.2,13.2,5.9,13.2,13.2h0Z"/><path id="southern_4" class="cls-4" d="m189.2,33.3c0,7.3-9.5,16.2-13.2,28.4-3.7-12.2-13.2-21.1-13.2-28.4s5.9-13.3,13.2-13.3,13.2,6,13.2,13.3h0Z"/><path id="southern_5" class="cls-4" d="m181.1,49.6c0,7.3-9.5,16.2-13.2,28.4-3.7-12.2-13.2-21.1-13.2-28.4s5.9-13.2,13.2-13.2,13.2,5.9,13.2,13.2Z"/><path id="southern_9" class="cls-2" d="m237.8,161.5c0,7.3-9.5,16.2-13.2,28.4-3.7-12.2-13.2-21.1-13.2-28.4s5.9-13.2,13.2-13.2,13.2,5.9,13.2,13.2Z"/><path id="southern_79" class="cls-1" d="m288.9,13.2c0,7.3-9.5,16.2-13.2,28.4-3.7-12.2-13.2-21.1-13.2-28.4s5.8-13.2,13.1-13.2,13.3,5.9,13.3,13.2Z"/><path id="southern_80" class="cls-1" d="m279.9,92.5c0,7.3-9.5,16.2-13.2,28.4-3.7-12.2-13.2-21.1-13.2-28.4s5.9-13.2,13.2-13.2c7.2-.1,13.2,5.9,13.2,13.2Z"/><path id="southern_81" class="cls-1" d="m269.1,71.1c0,7.3-9.5,16.2-13.2,28.4-3.7-12.2-13.2-21.1-13.2-28.4s5.9-13.2,13.2-13.2c7.3-.1,13.2,5.9,13.2,13.2Z"/></svg>